<?xml version="1.0" encoding="utf-8"?>
<!-- Generator: Adobe Illustrator 25.0.1, SVG Export Plug-In . SVG Version: 6.00 Build 0)  -->
<svg version="1.0"
	 id="svg8" inkscape:version="0.92.2 (5c3e80d, 2017-08-06)" sodipodi:docname="AppleMaps logo.svg" xmlns:cc="http://creativecommons.org/ns#" xmlns:dc="http://purl.org/dc/elements/1.1/" xmlns:inkscape="http://www.inkscape.org/namespaces/inkscape" xmlns:rdf="http://www.w3.org/1999/02/22-rdf-syntax-ns#" xmlns:sodipodi="http://sodipodi.sourceforge.net/DTD/sodipodi-0.dtd" xmlns:svg="http://www.w3.org/2000/svg"
	 xmlns="http://www.w3.org/2000/svg" xmlns:xlink="http://www.w3.org/1999/xlink" x="0px" y="0px" viewBox="0 0 338.5 280.5"
	 style="enable-background:new 0 0 338.5 280.5;" xml:space="preserve">
<style type="text/css">
	.st0{fill:#E4E1DA;}
	.st1{fill:#FFCCD5;}
	.st2{fill:#9DDF7B;}
	.st3{fill:#FCAB1A;}
	.st4{fill:#FFD634;}
	.st5{opacity:0.125;enable-background:new    ;}
	.st6{fill:#FFFFFF;}
	.st7{fill:#90C36C;}
	.st8{fill:#F4EFEB;}
	.st9{fill:#3394E3;}
	.st10{fill:#0078D9;}
	.st11{fill:#DE1C25;}
	.st12{fill:#0179DA;}
	.st13{opacity:0.24;enable-background:new    ;}
</style>
<sodipodi:namedview  bordercolor="#666666" borderopacity="1.0" fit-margin-bottom="0" fit-margin-left="0" fit-margin-right="0" fit-margin-top="0" id="base" inkscape:current-layer="layer1" inkscape:cx="373.76673" inkscape:cy="180.47486" inkscape:document-units="px" inkscape:guide-bbox="true" inkscape:object-nodes="false" inkscape:pageopacity="0.0" inkscape:pageshadow="2" inkscape:snap-intersection-paths="false" inkscape:snap-object-midpoints="false" inkscape:window-height="1017" inkscape:window-maximized="1" inkscape:window-width="1920" inkscape:window-x="1358" inkscape:window-y="-8" inkscape:zoom="1" pagecolor="#ffffff" showgrid="false" showguides="true">
	</sodipodi:namedview>
<g id="layer1" transform="translate(-284.1986,-143.22636)" inkscape:groupmode="layer" inkscape:label="Capa 1">
	<g id="g7423">
		<path id="path1466" inkscape:connector-curvature="0" class="st0" d="M426.3,310.8v66.4h79.6c4.1,0,8.1-0.6,11.8-1.7L426.3,310.8z
			"/>
		<path id="path1468" inkscape:connector-curvature="0" class="st1" d="M359.7,263.8v72.1c0,18,11.4,33.2,27.4,38.9v-91.7
			L359.7,263.8z"/>
		<path id="path1486" inkscape:connector-curvature="0" class="st0" d="M387.1,192.1c-11.7,4.1-20.9,13.4-25,25l25,17.7V192.1z"/>
		<path id="path1506" inkscape:connector-curvature="0" class="st2" d="M426.3,189.7v72.8l119.4,84.4c1-3.5,1.5-7.2,1.5-11v-41.4
			c-22.5,0-39.5-6.3-51.5-13.2c-6-3.4-10.8-7-14.5-10c-3.7-3-6.3-5.5-7.5-6.3c-7.4-5.4-14.8-16.2-20.6-29.5
			c-5.8-13.3-9.9-29.3-9.9-45c0-0.3,0-0.5,0-0.8L426.3,189.7z"/>
		<path id="path1294" inkscape:connector-curvature="0" class="st3" d="M363.1,214.5c-2.2,5.1-3.4,10.7-3.4,16.5v36.2l154.5,109.2
			c16.3-3.3,29-16.1,32.2-32.4L363.1,214.5z"/>
		<path id="path1292" inkscape:connector-curvature="0" class="st4" d="M362.1,217.1c-1.5,4.3-2.4,9-2.4,13.9v32.8l158,111.7
			c13.6-4,24.2-14.9,28-28.6L362.1,217.1z"/>
		<path id="path1288" inkscape:connector-curvature="0" class="st5" d="M401,189.7c-6.1,0-11.8,1.3-17,3.6v180.2
			c5.2,2.3,10.9,3.6,17,3.6h28.3V189.7L401,189.7z"/>
		<path id="path1290" inkscape:connector-curvature="0" class="st6" d="M401,189.7c-4.9,0-9.6,0.8-13.9,2.4v182.7
			c4.3,1.5,9,2.4,13.9,2.4h25.3V189.7H401z"/>
		<path id="path1300" inkscape:connector-curvature="0" class="st7" d="M443.1,189.7c0,0.3,0,0.5,0,0.8c0,15.8,4.1,31.7,9.9,45
			c5.8,13.3,13.2,24,20.6,29.5c1.2,0.9,3.8,3.3,7.5,6.3c3.7,3,8.5,6.6,14.5,10c12,6.9,29,13.2,51.5,13.2v-5.8
			c-21.5,0-37.3-6-48.7-12.4c-5.7-3.2-10.2-6.6-13.7-9.5c-3.5-2.9-5.9-5.1-7.7-6.5c-5.9-4.3-13.2-14.4-18.8-27.1
			c-5.5-12.7-9.4-28-9.4-42.7c0-0.3,0-0.5,0-0.8L443.1,189.7z"/>
		<path id="path1302" inkscape:connector-curvature="0" class="st8" d="M446,189.7c0,0.3,0,0.5,0,0.8c0,30.5,16,62.4,29.4,72.2
			c6.1,4.5,27.8,28.9,71.8,29V231c0-22.9-18.4-41.3-41.3-41.3L446,189.7z"/>
		<path id="path1304" inkscape:connector-curvature="0" class="st7" d="M485.6,189.7c0.5,19.5,5.4,33,17.4,44.3
			c5.8,5.4,11.3,10.1,19.5,13.2c6.3,2.4,14.1,4,24.6,4.5v-6.6c-9.9-0.6-16.8-2-22.2-4.1c-7.1-2.8-11.8-6.7-17.4-11.9
			c-10.8-10.1-14.9-21.1-15.3-39.5L485.6,189.7z"/>
		<path id="path1306" inkscape:connector-curvature="0" class="st2" d="M488.9,189.7c0.5,18.9,5,31.2,16.4,41.9
			c10,9.4,18.4,15.6,41.9,16.9V231c0-22.9-18.4-41.3-41.3-41.3L488.9,189.7z"/>
		<path id="path1308" inkscape:connector-curvature="0" class="st9" d="M401,189.7c-1.9,0-3.8,0.1-5.7,0.4v80.2
			c3.7-1.4,7.6-2.1,11.6-2.1c3.8,0,7.6,0.7,11.1,2v-80.5H401z"/>
		<path id="path7363" inkscape:connector-curvature="0" class="st10" d="M500.8,308.6c-0.5,0-1.1,0.2-1.5,0.5
			c-4.7,3-10.2,4.6-15.7,4.6c-4,0-8.1-0.9-11.8-2.5c-1.4-0.6-3.2,0-3.9,1.4c-2.4,5-3.7,10.4-3.7,15.9v0c0,20.2,16.4,36.6,36.6,36.6
			c20.2,0,36.6-16.4,36.6-36.6c0,0,0,0,0,0c0-5.5-1.3-11-3.7-16c-0.7-1.4-2.4-2.1-3.9-1.4c-3.7,1.6-7.7,2.5-11.8,2.5
			c-5.5,0-11-1.6-15.7-4.6c-0.3-0.2-0.6-0.2-0.8-0.2C501.4,308.7,501.1,308.6,500.8,308.6L500.8,308.6z"/>
		<path id="path7370" inkscape:connector-curvature="0" class="st6" d="M500.9,310.1c-0.3,0-0.5,0.1-0.8,0.2
			c-5,3.2-10.7,4.9-16.5,4.9c-4.3,0-8.5-0.9-12.4-2.6c-0.7-0.3-1.6,0-1.9,0.7c-2.3,4.8-3.5,10-3.5,15.3c0,0,0,0,0,0
			c0,19.4,15.7,35.1,35.1,35.1S536,348,536,328.6c0,0,0,0,0,0c0-5.3-1.2-10.5-3.5-15.3c-0.3-0.7-1.2-1-1.9-0.7
			c-3.9,1.7-8.1,2.6-12.4,2.6c-5.8,0-11.5-1.7-16.5-4.9C501.5,310.2,501.2,310.1,500.9,310.1L500.9,310.1z"/>
		<path id="path1312" inkscape:connector-curvature="0" class="st11" d="M500.9,311.6c-5.2,3.3-11.2,5.1-17.3,5.1
			c-4.5,0-8.9-0.9-13-2.7c-1.4,2.9-2.4,6.1-2.9,9.3h66.4c-0.5-3.2-1.5-6.4-2.9-9.3c-4.1,1.8-8.5,2.8-13,2.8
			C512.1,316.7,506.1,314.9,500.9,311.6L500.9,311.6z"/>
		<path id="path1314" inkscape:connector-curvature="0" class="st10" d="M467.4,325.6c-0.1,1-0.2,2-0.2,3
			c0,18.6,15.1,33.7,33.7,33.7l0,0c18.6,0,33.7-15.1,33.7-33.7l0,0c0-1-0.1-2-0.2-3H467.4z"/>
		<g id="flowRoot1324" transform="matrix(0.25421626,0,0,0.22728026,283.49854,147.75783)">
			<path id="path5687" inkscape:connector-curvature="0" class="st6" d="M817,868.1v14.5h-54.5c0.6-5.5,2.4-10.6,5.3-15.5
				c3-4.9,8.8-11.4,17.5-19.5c7-6.5,11.3-11,12.9-13.3c2.1-3.2,3.2-6.4,3.2-9.5c0-3.5-0.9-6.1-2.8-8c-1.8-1.9-4.4-2.8-7.7-2.8
				c-3.2,0-5.8,1-7.8,2.9c-1.9,2-3,5.2-3.3,9.7l-15.5-1.6c0.9-8.6,3.8-14.7,8.7-18.4s11-5.6,18.3-5.6c8,0,14.3,2.2,18.9,6.5
				c4.6,4.3,6.9,9.7,6.9,16.1c0,3.7-0.7,7.1-2,10.5c-1.3,3.3-3.4,6.7-6.2,10.4c-1.9,2.4-5.3,5.9-10.2,10.4s-8,7.5-9.4,9
				c-1.3,1.5-2.3,2.9-3.2,4.3H817z"/>
			<path id="path5689" inkscape:connector-curvature="0" class="st6" d="M840.9,838.8c-4-1.7-7-4-8.8-7c-1.8-3-2.7-6.3-2.7-9.8
				c0-6.1,2.1-11.1,6.3-15c4.2-3.9,10.3-5.9,18-5.9c7.7,0,13.7,2,17.9,5.9c4.3,3.9,6.4,9,6.4,15c0,3.8-1,7.1-2.9,10.1
				c-2,2.9-4.7,5.1-8.2,6.7c4.5,1.8,7.9,4.4,10.2,7.9c2.4,3.5,3.5,7.5,3.5,12c0,7.5-2.4,13.6-7.2,18.3c-4.8,4.7-11.1,7-19,7
				c-7.4,0-13.5-1.9-18.4-5.8c-5.8-4.6-8.7-10.9-8.7-18.8c0-4.4,1.1-8.4,3.3-12.1C832.8,843.6,836.2,840.8,840.9,838.8z
				 M844.1,823.1c0,3.1,0.9,5.5,2.6,7.3c1.8,1.7,4.1,2.6,7,2.6c3,0,5.3-0.9,7.1-2.6c1.8-1.8,2.7-4.2,2.7-7.3c0-2.9-0.9-5.2-2.7-7
				c-1.7-1.8-4-2.7-6.9-2.7c-3,0-5.4,0.9-7.1,2.7C845,817.9,844.1,820.2,844.1,823.1L844.1,823.1z M842.7,857.9
				c0,4.3,1.1,7.6,3.3,10c2.2,2.4,5,3.6,8.2,3.6c3.2,0,5.9-1.1,8-3.4c2.1-2.3,3.2-5.7,3.2-10c0-3.8-1.1-6.8-3.2-9.1
				c-2.1-2.3-4.9-3.5-8.1-3.5c-3.8,0-6.6,1.3-8.5,3.9C843.6,852,842.7,854.8,842.7,857.9L842.7,857.9z"/>
			<path id="path5691" inkscape:connector-curvature="0" class="st6" d="M917,801.1c7.9,0,14,2.8,18.4,8.4
				c5.3,6.6,7.9,17.7,7.9,33.1c0,15.4-2.7,26.4-8,33.1c-4.4,5.5-10.5,8.3-18.4,8.3c-7.9,0-14.3-3-19.1-9.1
				c-4.8-6.1-7.3-16.9-7.3-32.5c0-15.3,2.7-26.3,8-33C903,803.9,909.1,801.1,917,801.1z M917,814c-1.9,0-3.6,0.6-5,1.8
				c-1.5,1.2-2.6,3.3-3.4,6.4c-1.1,4-1.6,10.8-1.6,20.3c0,9.5,0.5,16.1,1.4,19.7c1,3.5,2.2,5.9,3.6,7.1c1.5,1.2,3.2,1.8,5,1.8
				c1.9,0,3.6-0.6,5-1.8c1.5-1.2,2.6-3.4,3.4-6.5c1.1-4,1.6-10.7,1.6-20.3c0-9.5-0.5-16.1-1.4-19.6c-1-3.6-2.2-6-3.7-7.1
				C920.5,814.6,918.9,814,917,814z"/>
		</g>
		<ellipse id="circle1296" class="st12" cx="406.9" cy="301.7" rx="33.4" ry="33.4"/>
		<path id="path1298" inkscape:connector-curvature="0" class="st6" d="M406.8,280.9C406.7,280.9,406.7,280.9,406.8,280.9
			c-0.1,0-0.2,0-0.2,0c-0.1,0-0.2,0-0.3,0.1c0,0,0,0-0.1,0c0,0-0.1,0-0.1,0c-0.1,0-0.2,0.1-0.2,0.1c-0.1,0-0.1,0.1-0.2,0.1
			c-0.1,0-0.1,0.1-0.2,0.1c-0.1,0-0.1,0.1-0.2,0.2c0,0-0.1,0.1-0.1,0.1c-0.1,0.1-0.1,0.1-0.1,0.2c0,0-0.1,0.1-0.1,0.1
			c0,0.1-0.1,0.2-0.1,0.2c0,0,0,0.1,0,0.1l-3,8.8c0,0,0,0,0,0l-2.3,6.6l-1.5,4.5v0l-5.9,17.1c-0.4,0.8-0.2,1.7,0.4,2.4
			c0.4,0.4,0.8,0.6,1.3,0.6c0,0,0,0,0,0c0.1,0,0.2,0,0.4,0c0,0,0.1,0,0.1,0c0.1,0,0.2,0,0.3,0c0.1,0,0.1,0,0.2,0
			c0.1,0,0.1,0,0.2-0.1c0.1,0,0.1-0.1,0.2-0.1c0,0,0.1,0,0.1-0.1c0.1-0.1,0.2-0.1,0.3-0.2c0,0,0,0,0,0l0.1-0.1v0l11.2-10.8
			l11.2,10.8c0,0,0,0,0,0l0.1,0.1c0,0,0,0,0,0c0.1,0.1,0.2,0.1,0.3,0.2c0,0,0.1,0,0.1,0.1c0.1,0,0.1,0.1,0.2,0.1
			c0.1,0,0.1,0.1,0.2,0.1c0.1,0,0.1,0,0.2,0c0.1,0,0.2,0,0.3,0c0,0,0.1,0,0.1,0c0.1,0,0.3,0,0.4,0c0,0,0,0,0,0
			c0.5-0.1,0.9-0.3,1.3-0.6c0.6-0.7,0.8-1.6,0.4-2.4l-9.7-28.1c0,0,0,0,0,0l-3-8.8c0,0,0-0.1,0-0.1c0-0.1-0.1-0.2-0.1-0.2
			c0-0.1-0.1-0.1-0.1-0.2c0-0.1-0.1-0.1-0.1-0.2c0-0.1-0.1-0.1-0.1-0.1c0,0-0.1-0.1-0.2-0.1c-0.1,0-0.1-0.1-0.2-0.1
			c0,0-0.1-0.1-0.1-0.1c-0.1,0-0.2-0.1-0.2-0.1c0,0-0.1,0-0.1,0c0,0,0,0-0.1,0c-0.1,0-0.2,0-0.3-0.1c-0.1,0-0.1,0-0.2,0
			c-0.1,0-0.1,0-0.2,0C406.9,280.9,406.8,280.9,406.8,280.9L406.8,280.9z"/>
		<path id="path1504" inkscape:connector-curvature="0" class="st13" d="M545.7,346.9c-0.1,0.2-0.1,0.4-0.2,0.5
			C545.6,347.3,545.7,347.1,545.7,346.9L545.7,346.9z"/>
		<path id="path1502" inkscape:connector-curvature="0" class="st13" d="M545.6,347.5c-0.1,0.2-0.1,0.4-0.2,0.6
			C545.4,347.9,545.5,347.7,545.6,347.5z"/>
		<path id="path1500" inkscape:connector-curvature="0" class="st13" d="M545.4,348c-0.1,0.5-0.3,1-0.5,1.4
			C545.1,349,545.2,348.5,545.4,348z"/>
		<path id="path1496" inkscape:connector-curvature="0" class="st13" d="M399,189.8c-0.2,0-0.4,0-0.7,0
			C398.6,189.8,398.8,189.8,399,189.8z"/>
		<path id="path1494" inkscape:connector-curvature="0" class="st13" d="M397.1,189.9c-0.3,0-0.6,0.1-0.9,0.1
			C396.5,190,396.8,189.9,397.1,189.9z"/>
		<path id="path1492" inkscape:connector-curvature="0" class="st13" d="M395.2,190.1c-0.3,0-0.6,0.1-0.9,0.1
			C394.5,190.2,394.8,190.2,395.2,190.1z"/>
		<path id="path1490" inkscape:connector-curvature="0" class="st13" d="M393.3,190.5c-0.3,0.1-0.6,0.1-1,0.2
			C392.6,190.6,392.9,190.5,393.3,190.5z"/>
		<path id="path1488" inkscape:connector-curvature="0" class="st13" d="M391.5,190.8c-0.3,0.1-0.7,0.2-1,0.2
			C390.8,191,391.1,190.9,391.5,190.8z"/>
		<path id="path1484" inkscape:connector-curvature="0" class="st13" d="M362.1,217.2c-0.2,0.5-0.4,1-0.5,1.6
			C361.7,218.2,361.9,217.7,362.1,217.2z"/>
		<path id="path1482" inkscape:connector-curvature="0" class="st13" d="M361.5,218.8c-0.2,0.5-0.3,1-0.4,1.5
			C361.2,219.8,361.4,219.3,361.5,218.8z"/>
		<path id="path1480" inkscape:connector-curvature="0" class="st13" d="M361,220.6c-0.1,0.5-0.2,0.9-0.3,1.4
			C360.8,221.5,360.9,221,361,220.6z"/>
		<path id="path1478" inkscape:connector-curvature="0" class="st13" d="M360.6,222.3c-0.1,0.4-0.2,0.9-0.3,1.3
			C360.4,223.2,360.5,222.7,360.6,222.3z"/>
		<path id="path1476" inkscape:connector-curvature="0" class="st13" d="M360.3,224c-0.1,0.5-0.1,0.9-0.2,1.4
			C360.1,224.9,360.2,224.5,360.3,224z"/>
		<path id="path1474" inkscape:connector-curvature="0" class="st13" d="M360,225.7c-0.1,0.5-0.1,0.9-0.1,1.4
			C359.9,226.6,360,226.2,360,225.7z"/>
		<path id="path1472" inkscape:connector-curvature="0" class="st13" d="M359.9,227.5c0,0.4-0.1,0.9-0.1,1.3
			C359.8,228.4,359.8,227.9,359.9,227.5z"/>
		<path id="path1470" inkscape:connector-curvature="0" class="st13" d="M359.7,229.3c0,0.6,0,1.2,0,1.8
			C359.7,230.4,359.7,229.8,359.7,229.3z"/>
		<path id="path1464" inkscape:connector-curvature="0" class="st13" d="M517.7,375.5L517.7,375.5c0.4-0.1,0.8-0.2,1.2-0.4
			C518.5,375.3,518.1,375.4,517.7,375.5L517.7,375.5z"/>
		<path id="path1462" inkscape:connector-curvature="0" class="st13" d="M531.5,368.4c-0.6,0.5-1.3,1-2,1.5
			C530.2,369.4,530.9,368.9,531.5,368.4z"/>
		<path id="path1460" inkscape:connector-curvature="0" class="st13" d="M529.5,369.9c-0.3,0.2-0.7,0.5-1,0.7
			C528.8,370.3,529.2,370.1,529.5,369.9z"/>
		<path id="path1458" inkscape:connector-curvature="0" class="st13" d="M528.3,370.7c-0.7,0.4-1.3,0.8-2,1.2
			C526.9,371.5,527.6,371.1,528.3,370.7z"/>
		<path id="path1456" inkscape:connector-curvature="0" class="st13" d="M526.2,371.9c-0.4,0.2-0.7,0.4-1.1,0.6
			C525.4,372.3,525.8,372.1,526.2,371.9z"/>
		<path id="path1454" inkscape:connector-curvature="0" class="st13" d="M525,372.6c-0.7,0.4-1.4,0.7-2.1,1
			C523.6,373.3,524.3,372.9,525,372.6z"/>
		<path id="path1452" inkscape:connector-curvature="0" class="st13" d="M390.4,375.9c0.3,0.1,0.7,0.2,1,0.2
			C391.1,376,390.8,376,390.4,375.9z"/>
		<path id="path1450" inkscape:connector-curvature="0" class="st13" d="M392.3,376.3c0.3,0.1,0.6,0.1,1,0.2
			C392.9,376.4,392.6,376.4,392.3,376.3z"/>
		<path id="path1448" inkscape:connector-curvature="0" class="st13" d="M394.2,376.7c0.3,0.1,0.6,0.1,0.9,0.1
			C394.8,376.8,394.5,376.7,394.2,376.7z"/>
		<path id="path1446" inkscape:connector-curvature="0" class="st13" d="M396.2,376.9c0.3,0,0.6,0.1,0.9,0.1
			C396.8,377,396.5,377,396.2,376.9z"/>
		<path id="rect1328" inkscape:connector-curvature="0" class="st13" d="M398.3,377.1c0.2,0,0.4,0,0.7,0
			C398.8,377.2,398.6,377.1,398.3,377.1z"/>
	</g>
</g>
</svg>
