<svg width="37" height="37" viewBox="0 0 37 37" fill="none" xmlns="http://www.w3.org/2000/svg">
<path d="M17.6445 27.1299L17.8662 27.1348C18.9687 27.1896 20.0154 27.6532 20.8008 28.4404C21.6386 29.2806 22.1104 30.4216 22.1104 31.6113V34.5723C22.1106 34.9095 22.2274 35.2194 22.4219 35.4648C21.0091 35.821 19.5302 36.0117 18.0068 36.0117C12.6857 36.0117 7.90393 33.7028 4.60742 30.0332C4.82956 29.4407 5.17554 28.8962 5.62988 28.4404C6.4675 27.6007 7.60335 27.13 8.78613 27.1299H17.6445ZM18.0068 0C27.9512 0.000260821 36.0127 8.06146 36.0127 18.0059C36.0126 21.7325 34.8795 25.1939 32.9404 28.0664C32.7569 27.7321 32.547 27.4111 32.3115 27.1064C31.3769 25.8975 30.0913 25.0117 28.6348 24.5693L28.3418 24.4873L28.1973 24.457C27.4757 24.3466 26.7728 24.7986 26.5859 25.5205C26.3996 26.2421 26.7945 26.9779 27.4785 27.2314L27.6191 27.2764L27.7979 27.3262C28.682 27.5947 29.4635 28.1326 30.0322 28.8682C30.4333 29.387 30.7104 29.9854 30.8545 30.6182C29.195 32.3083 27.2056 33.6731 24.9893 34.6064C24.9895 34.5951 24.9912 34.5837 24.9912 34.5723V31.6113C24.9912 29.66 24.2181 27.7873 22.8408 26.4062C21.5495 25.1116 19.8265 24.3482 18.0098 24.2578L17.6445 24.248H8.78613C6.83665 24.2482 4.96718 25.0252 3.58984 26.4062C3.25658 26.7405 2.95836 27.1033 2.69824 27.4893C0.988267 24.7352 6.44632e-05 21.4861 0 18.0059C3.43527e-05 8.06133 8.06231 4.84227e-05 18.0068 0ZM13.2158 6.48242C9.15502 6.48267 5.86924 9.7824 5.86914 13.8447C5.86954 17.9068 9.1552 21.2068 13.2158 21.207C17.2765 21.2068 20.5621 17.9068 20.5625 13.8447C20.5624 9.78236 17.2767 6.48261 13.2158 6.48242ZM23.7646 6.69043C23.043 6.58155 22.3418 7.03479 22.1562 7.75684C21.9713 8.47886 22.367 9.21466 23.0518 9.4668L23.1924 9.51074L23.3711 9.56055C24.2577 9.82789 25.0418 10.3657 25.6123 11.1025C26.2207 11.8885 26.5518 12.8566 26.5518 13.8525L26.5479 14.0391C26.5091 14.9686 26.1825 15.8649 25.6123 16.6016C25.0039 17.3872 24.1519 17.948 23.1924 18.1943C22.4225 18.3926 21.9586 19.1771 22.1562 19.9473C22.3543 20.7173 23.139 21.1817 23.9092 20.9844C25.49 20.5785 26.8909 19.6564 27.8906 18.3652C28.8277 17.1548 29.3634 15.6833 29.4268 14.1582L29.4326 13.8525C29.4326 12.2188 28.8902 10.6303 27.8906 9.33887C26.9532 8.12809 25.6635 7.24213 24.2031 6.80176L23.9092 6.71973L23.7646 6.69043ZM13.2158 9.36328C15.6782 9.36347 17.6806 11.3662 17.6807 13.8447C17.6803 16.323 15.678 18.326 13.2158 18.3262C10.7537 18.3259 8.7504 16.323 8.75 13.8447C8.7501 11.3662 10.7535 9.36353 13.2158 9.36328Z" fill="#FBBC05"/>
</svg>
