<svg width="22" height="36" viewBox="0 0 22 36" fill="none" xmlns="http://www.w3.org/2000/svg">
<path fill-rule="evenodd" clip-rule="evenodd" d="M11 0.150002C5.00774 0.150002 0.150033 5.00801 0.150033 11.0003C0.14676 12.7464 0.398589 13.7104 1.1362 15.4369L11 35.1646L20.8638 15.4369C21.6014 13.7104 21.8533 12.7461 21.85 11C21.85 5.00771 16.9923 0.150002 11 0.150002ZM11 13.85C13.1263 13.85 14.85 12.1263 14.85 10C14.85 7.87371 13.1263 6.15 11 6.15C8.8737 6.15 7.15 7.87371 7.15 10C7.15 12.1263 8.8737 13.85 11 13.85Z" fill="#132778"/>
<path d="M14.85 10C14.85 12.1263 13.1263 13.85 11 13.85C8.8737 13.85 7.15 12.1263 7.15 10C7.15 7.87371 8.8737 6.15 11 6.15C13.1263 6.15 14.85 7.87371 14.85 10Z" fill="white"/>
<path fill-rule="evenodd" clip-rule="evenodd" d="M11 0.150002C5.00774 0.150002 0.150033 5.00801 0.150033 11.0003C0.14676 12.7464 0.398589 13.7104 1.1362 15.4369L11 35.1646L20.8638 15.4369C21.6014 13.7104 21.8533 12.7461 21.85 11C21.85 5.00771 16.9923 0.150002 11 0.150002ZM11 13.85C13.1263 13.85 14.85 12.1263 14.85 10C14.85 7.87371 13.1263 6.15 11 6.15C8.8737 6.15 7.15 7.87371 7.15 10C7.15 12.1263 8.8737 13.85 11 13.85Z" stroke="#0E1C55" stroke-width="0.3"/>
<path d="M14.85 10C14.85 12.1263 13.1263 13.85 11 13.85C8.8737 13.85 7.15 12.1263 7.15 10C7.15 7.87371 8.8737 6.15 11 6.15C13.1263 6.15 14.85 7.87371 14.85 10Z" stroke="#0E1C55" stroke-width="0.3"/>
</svg>
