<svg width="21" height="21" viewBox="0 0 21 21" fill="none" xmlns="http://www.w3.org/2000/svg">
<path d="M19.2511 10.6943C19.2511 9.97489 19.1915 9.44989 19.0626 8.90546H10.6797V12.1526H15.6003C15.5011 12.9596 14.9654 14.1749 13.7749 14.9915L13.7582 15.1002L16.4087 17.1125L16.5924 17.1305C18.2788 15.604 19.2511 13.3582 19.2511 10.6943" fill="#4285F4"/>
<path d="M10.6788 19.25C13.0895 19.25 15.1133 18.4722 16.5915 17.1305L13.774 14.9916C13.0201 15.5069 12.0081 15.8666 10.6788 15.8666C8.31773 15.8666 6.31379 14.3402 5.59944 12.2305L5.49473 12.2392L2.73868 14.3295L2.70264 14.4277C4.17087 17.286 7.18674 19.25 10.6788 19.25Z" fill="#34A853"/>
<path d="M5.60014 12.2305C5.41165 11.6861 5.30257 11.1027 5.30257 10.5C5.30257 9.89716 5.41165 9.31385 5.59022 8.76941L5.58523 8.65346L2.79464 6.5296L2.70333 6.57216C2.0982 7.75829 1.75098 9.09026 1.75098 10.5C1.75098 11.9097 2.0982 13.2416 2.70333 14.4277L5.60014 12.2305" fill="#FBBC05"/>
<path d="M10.6789 5.13331C12.3554 5.13331 13.4864 5.84303 14.1312 6.43613L16.6511 4.025C15.1035 2.61528 13.0895 1.75 10.6789 1.75C7.18676 1.75 4.17088 3.71387 2.70264 6.57218L5.58953 8.76944C6.31381 6.65972 8.31776 5.13331 10.6789 5.13331" fill="#EB4335"/>
</svg>
