<svg width="27" height="27" viewBox="0 0 27 27" fill="none" xmlns="http://www.w3.org/2000/svg">
<path d="M12.2083 12.1818C12.2083 11.4685 12.7866 10.8901 13.5 10.8901C14.2134 10.8901 14.7916 11.4685 14.7916 12.1818V19.9318C14.7916 20.6452 14.2134 21.2235 13.5 21.2235C12.7866 21.2235 12.2083 20.6452 12.2083 19.9318V12.1818Z" fill="white"/>
<path d="M13.5 5.81616C12.7866 5.81616 12.2083 6.39445 12.2083 7.10783C12.2083 7.82119 12.7866 8.3995 13.5 8.3995C14.2134 8.3995 14.7916 7.82119 14.7916 7.10783C14.7916 6.39445 14.2134 5.81616 13.5 5.81616Z" fill="white"/>
<path fill-rule="evenodd" clip-rule="evenodd" d="M13.5 0.583252C6.3663 0.583252 0.583313 6.36624 0.583313 13.4999C0.583313 20.6335 6.3663 26.4166 13.5 26.4166C20.6336 26.4166 26.4166 20.6335 26.4166 13.4999C26.4166 6.36624 20.6336 0.583252 13.5 0.583252ZM3.16665 13.4999C3.16665 19.2069 7.79303 23.8333 13.5 23.8333C19.2069 23.8333 23.8333 19.2069 23.8333 13.4999C23.8333 7.79297 19.2069 3.16659 13.5 3.16659C7.79303 3.16659 3.16665 7.79297 3.16665 13.4999Z" fill="white"/>
</svg>
