<svg width="101" height="23" viewBox="0 0 101 23" fill="none" xmlns="http://www.w3.org/2000/svg">
<path d="M9.152 9.5653C9.13351 9.69084 9.07758 9.80717 8.99211 9.89788C8.06012 11.0516 6.82108 11.6285 5.27499 11.6285C3.69495 11.6285 2.41299 11.0678 1.42912 9.94645C0.476372 8.85941 0 7.48883 0 5.83472C0 4.23261 0.468825 2.87283 1.40648 1.75537C1.86137 1.19166 2.43217 0.741389 3.07675 0.437778C3.72133 0.134166 4.42324 -0.0150317 5.13067 0.00119509C6.77203 0.00119509 8.05917 0.525585 8.99211 1.57436C9.0766 1.65453 9.13037 1.76377 9.14351 1.88193C9.14351 1.982 8.96805 2.35433 8.61573 2.99596C8.2634 3.63758 8.04125 4.00108 7.95069 4.07907C7.93091 4.09976 7.90728 4.11604 7.88125 4.12692C7.85522 4.1378 7.82734 4.14305 7.79929 4.14235C7.66022 4.05382 7.53235 3.94752 7.41867 3.82595C7.17458 3.59606 6.90417 3.39836 6.61355 3.2373C6.22829 3.02977 5.80083 2.92127 5.36696 2.9209C5.02442 2.90884 4.684 2.98137 4.37361 3.13254C4.06322 3.28372 3.79169 3.50925 3.58128 3.79063C3.16323 4.36016 2.94773 5.0627 2.97143 5.7788C2.94783 6.50466 3.16573 7.21676 3.58835 7.79493C3.79656 8.07974 4.06733 8.30853 4.37801 8.46215C4.68868 8.61577 5.03023 8.68976 5.37404 8.6779C5.8081 8.68109 6.23705 8.58039 6.6277 8.38358C6.91274 8.23457 7.1785 8.04865 7.41867 7.83025C7.53066 7.71666 7.65564 7.61781 7.7908 7.53592C7.82044 7.53871 7.8492 7.54787 7.87526 7.56282C7.90132 7.57776 7.92412 7.59817 7.9422 7.62275C8.02333 7.72086 8.24359 8.0505 8.60299 8.61168C8.96664 9.18562 9.152 9.50496 9.152 9.5653Z" fill="white"/>
<path d="M12.6167 6.58077C12.6167 8.01806 12.6214 9.12178 12.6309 9.89193C12.6309 10.0141 12.6394 10.2216 12.6535 10.5174C12.6691 10.7852 12.6776 10.9942 12.6776 11.1413C12.6776 11.2517 12.6139 11.3179 12.4865 11.3385C12.0783 11.3918 11.6668 11.413 11.2555 11.4018C10.8668 11.4168 10.4775 11.3957 10.0924 11.3385C10.0422 11.3301 9.99617 11.3043 9.96178 11.2653C9.92738 11.2263 9.9066 11.1764 9.90281 11.1237V10.7852C9.90281 10.3172 9.90799 9.61526 9.91837 8.67931C9.92875 7.74335 9.93346 7.04384 9.93252 6.58077C9.93252 4.36744 9.93535 3.3584 9.94101 3.55363C9.93552 2.54695 9.87221 1.54151 9.7514 0.542684C9.74206 0.498177 9.73684 0.452839 9.73584 0.407295C9.73584 0.291036 9.80093 0.233643 9.93252 0.233643H12.6464C12.7724 0.233643 12.8318 0.289564 12.8205 0.399936L12.8134 0.547099C12.6823 2.81929 12.6167 4.83051 12.6167 6.58077Z" fill="white"/>
<path d="M21.0349 7.05838C21.0349 7.5911 20.8703 7.89426 20.5411 7.96784C20.4845 7.97863 19.96 8.03652 18.9676 8.14149C18.3705 8.21017 17.4791 8.29209 16.2933 8.38725C16.3326 8.56185 16.4117 8.72404 16.524 8.86006C16.6364 8.99609 16.7785 9.10196 16.9386 9.16869C17.2522 9.32161 17.5954 9.39763 17.9418 9.3909C18.4183 9.38394 18.8857 9.25344 19.3016 9.01122L19.8803 8.63154C19.9869 8.68452 20.1652 8.95334 20.4151 9.438C20.667 9.92363 20.7915 10.2312 20.7915 10.3622C20.7915 10.4004 20.7533 10.4608 20.6783 10.5447C20.0595 11.2314 19.0992 11.5748 17.7974 11.5748C16.5919 11.5748 15.6189 11.2084 14.8784 10.4755C14.1181 9.73183 13.7407 8.73848 13.7464 7.49545C13.7464 6.28381 14.0855 5.29046 14.7638 4.51541C15.4599 3.72073 16.3863 3.32339 17.5428 3.32339C18.0074 3.31611 18.4682 3.41092 18.8952 3.60162C19.3221 3.79233 19.7055 4.07462 20.0204 4.43005C20.348 4.77671 20.6064 5.18748 20.7805 5.63861C20.9547 6.08974 21.0411 6.57229 21.0349 7.05838ZM18.3748 6.57715C18.3763 6.25531 18.2564 5.94566 18.0408 5.71478C17.9409 5.59742 17.818 5.50363 17.6803 5.43967C17.5427 5.37572 17.3935 5.34307 17.2428 5.34393C17.0882 5.34239 16.9356 5.37972 16.7978 5.45275C16.6601 5.52577 16.5414 5.63233 16.4518 5.76334C16.2608 6.02366 16.161 6.34399 16.1688 6.67134C16.1688 6.8185 16.2396 6.88472 16.3811 6.88472C16.9652 6.86539 17.5475 6.8064 18.1243 6.70813C18.2913 6.67722 18.3748 6.63455 18.3748 6.57715Z" fill="white"/>
<path d="M29.5136 7.39886C29.5136 7.80503 29.5362 8.4084 29.5815 9.20896C29.6268 10.0095 29.6494 10.6104 29.6494 11.0117C29.6494 11.2221 29.5617 11.3355 29.3834 11.3517C28.7561 11.3958 28.0368 11.4179 27.2256 11.4179C27.1294 11.4179 27.0643 11.2707 27.0318 10.9631C26.9992 10.6556 26.9596 10.5069 26.9143 10.501C26.8551 10.5375 26.8013 10.5826 26.7544 10.635C26.1884 11.2315 25.5805 11.5292 24.9305 11.5282C24.4588 11.5362 23.9916 11.4305 23.5657 11.2194C23.1398 11.0082 22.7667 10.6974 22.4756 10.3112C21.8616 9.55092 21.5347 8.58424 21.5558 7.59164C21.5558 6.37314 21.8723 5.39205 22.5053 4.64839C23.1656 3.87824 24.0679 3.49316 25.2121 3.49316C26.0073 3.49316 26.6356 3.78307 27.0968 4.3629C27.1167 4.38938 27.1336 4.40263 27.1492 4.40263C27.1945 4.40263 27.2468 4.2746 27.3048 4.02001C27.3629 3.76541 27.4336 3.63591 27.5143 3.63591C27.8748 3.66426 28.2325 3.72283 28.584 3.81104C28.9479 3.88151 29.3082 3.9709 29.6636 4.07887C29.74 4.11125 29.7782 4.15392 29.7782 4.20543C29.7733 4.2613 29.7653 4.31683 29.7541 4.37173C29.5896 5.37159 29.5091 6.38447 29.5136 7.39886ZM27.0657 7.44595C27.0724 7.2422 27.04 7.03911 26.9702 6.84857C26.9005 6.65804 26.7949 6.48389 26.6596 6.33635C26.3728 6.05443 25.9931 5.89736 25.5984 5.89736C25.2037 5.89736 24.824 6.05443 24.5372 6.33635C24.404 6.48471 24.3003 6.65898 24.2321 6.84915C24.1638 7.03932 24.1324 7.24164 24.1396 7.44448C24.1366 7.64785 24.1726 7.84979 24.2455 8.03853C24.3184 8.22728 24.4267 8.39903 24.5641 8.54379C24.696 8.69135 24.8562 8.80847 25.0344 8.88757C25.2125 8.96666 25.4047 9.00596 25.5984 9.00293C25.7941 9.00932 25.989 8.97339 26.1707 8.89739C26.3524 8.8214 26.517 8.707 26.654 8.56145C26.791 8.41341 26.898 8.23827 26.9688 8.0464C27.0395 7.85453 27.0725 7.64985 27.0657 7.44448V7.44595Z" fill="white"/>
<path d="M38.5033 11.0774C38.5056 11.1079 38.5019 11.1385 38.4924 11.1674C38.4829 11.1963 38.4678 11.2229 38.4481 11.2455C38.4283 11.2682 38.4043 11.2863 38.3775 11.2989C38.3508 11.3115 38.3218 11.3183 38.2924 11.3188C38.1519 11.3394 37.7864 11.3497 37.1958 11.3497C36.8052 11.3618 36.4143 11.3466 36.0257 11.3041C35.955 11.2921 35.8918 11.2518 35.8494 11.1918C35.8071 11.1318 35.7891 11.0569 35.7993 10.9833C35.7993 10.739 35.8068 10.3696 35.8219 9.87512C35.837 9.38065 35.8441 9.00833 35.8431 8.75815C35.8431 8.56537 35.8431 8.2784 35.829 7.89578C35.8148 7.51316 35.8134 7.22472 35.8134 7.03341C35.8134 6.32016 35.5158 5.96353 34.9206 5.96353C34.6732 5.98254 34.4362 6.07442 34.2372 6.22843C33.9542 6.4271 33.8127 6.62135 33.8127 6.81708V11.0303C33.8181 11.0659 33.8162 11.1022 33.8072 11.1369C33.7981 11.1716 33.7821 11.2039 33.7602 11.2317C33.7383 11.2595 33.7109 11.2822 33.68 11.2982C33.649 11.3142 33.6152 11.3232 33.5806 11.3247C33.4052 11.3453 33.0472 11.3556 32.5066 11.3556C32.1255 11.3658 31.7441 11.3506 31.3648 11.31C31.3331 11.3094 31.3019 11.3022 31.273 11.2889C31.244 11.2756 31.218 11.2563 31.1963 11.2323C31.1747 11.2083 31.1579 11.18 31.147 11.1491C31.136 11.1182 31.1312 11.0853 31.1327 11.0524C31.1327 10.6462 31.1351 10.0345 31.1398 9.2173C31.1445 8.40006 31.1473 7.7859 31.1483 7.37482C31.1483 6.07783 31.0506 5.05995 30.8554 4.3212C30.8488 4.28334 30.8459 4.24488 30.8469 4.20641C30.8451 4.16878 30.8551 4.13157 30.8756 4.10046C30.896 4.06936 30.9257 4.0461 30.9601 4.03423C31.2761 3.99793 31.6963 3.94054 32.2208 3.86205C33.0151 3.69919 33.4627 3.61776 33.5636 3.61776C33.6188 3.61776 33.6613 3.79288 33.691 4.1446C33.7207 4.49632 33.7631 4.67144 33.8183 4.67144C33.7636 4.67144 34.0325 4.49043 34.6249 4.12841C35.2173 3.76639 35.7361 3.58538 36.1813 3.58538C36.7481 3.56107 37.3078 3.72384 37.7802 4.05042C38.009 4.2189 38.1936 4.44424 38.3171 4.70591C38.4407 4.96758 38.4994 5.25726 38.4877 5.54853V8.04C38.4877 8.37847 38.4901 8.88471 38.4948 9.55872C38.4995 10.2327 38.5023 10.739 38.5033 11.0774Z" fill="white"/>
<path d="M50.7529 5.8558C50.7529 6.67795 50.6897 7.24992 50.5633 7.57172C50.2705 8.21915 49.9397 8.84725 49.5728 9.45246C49.0351 10.3953 48.6649 10.9805 48.4621 11.2081C48.3206 11.3553 47.9909 11.4362 47.4589 11.4362C47.1798 11.4481 46.9002 11.4323 46.624 11.3891C46.5238 11.3613 46.4322 11.3071 46.358 11.2317C46.0684 10.9373 45.6222 10.2128 45.0195 9.05806C44.3837 10.2383 43.9512 10.9628 43.7219 11.2317C43.6017 11.3685 43.2691 11.4362 42.7315 11.4362C42.482 11.4472 42.2321 11.4315 41.9858 11.3891C41.733 11.3155 41.3052 10.7441 40.7024 9.67467C40.309 8.99688 39.956 8.29457 39.6454 7.57172C39.5143 7.23521 39.4487 6.66373 39.4487 5.85728C39.4487 4.88208 39.4737 4.28656 39.5237 4.07072C39.536 4.00839 39.5699 3.95295 39.619 3.91495C39.668 3.87695 39.7288 3.85906 39.7897 3.86469C40.0227 3.86469 40.3722 3.87254 40.8382 3.88824C41.3042 3.90394 41.6523 3.91178 41.8825 3.91178C41.9985 3.91178 42.0565 3.99861 42.0565 4.17226C42.0565 4.31943 42.0565 4.5593 42.0409 4.87276C42.0254 5.18621 42.0268 5.41873 42.0268 5.57178C42.0268 6.20899 42.0409 6.68139 42.0721 6.98601C42.0815 7.10276 42.2169 7.39709 42.4782 7.86899C42.7399 8.3458 42.9027 8.5842 42.9607 8.5842C43.0526 8.5842 43.2196 8.34874 43.463 7.88076C43.6121 7.5963 43.7416 7.30124 43.8507 6.99779C43.9111 6.80157 43.9412 6.32574 43.9412 5.57031C43.9412 5.41284 43.9271 5.17738 43.9002 4.86393C43.8733 4.55047 43.8578 4.31648 43.8578 4.16343C43.8578 4.01038 43.9158 3.91914 44.0332 3.91914C44.1747 3.91914 44.4577 3.9162 44.8822 3.91031L45.1935 3.90296H45.1666C45.1539 3.90296 45.151 3.90296 45.1553 3.90296H45.4057C45.5944 3.89707 45.8774 3.90246 46.2547 3.91914C46.3651 3.93386 46.4217 4.01627 46.4217 4.16343C46.4217 4.35965 46.4089 4.66428 46.3835 5.07731C46.358 5.49035 46.3453 5.79449 46.3453 5.98972C46.3305 6.33095 46.3509 6.67285 46.4061 7.00956C46.5038 7.30919 46.6205 7.60172 46.7556 7.88518C46.9839 8.36002 47.1433 8.59744 47.2339 8.59744C47.3244 8.59744 47.4942 8.35757 47.7433 7.87782C47.981 7.41867 48.1079 7.11846 48.1239 6.97718C48.1437 6.78097 48.1536 5.84894 48.1536 4.18109C48.1536 3.99714 48.2045 3.90443 48.3064 3.90443C48.5385 3.90443 48.8894 3.89658 49.3592 3.88088C49.8289 3.86518 50.1794 3.85733 50.4105 3.85733C50.4724 3.85374 50.5333 3.87442 50.5813 3.91529C50.6292 3.95616 50.6607 4.01425 50.6694 4.07808C50.7251 4.29392 50.7529 4.88649 50.7529 5.8558Z" fill="white"/>
<path d="M59.2644 7.39886C59.2644 7.80503 59.2871 8.4084 59.3323 9.20896C59.3776 10.0095 59.4003 10.6104 59.4003 11.0117C59.4003 11.2221 59.3111 11.3355 59.1343 11.3516C58.506 11.3987 57.7867 11.4223 56.9764 11.4223C56.8802 11.4223 56.8151 11.2751 56.7826 10.9676C56.75 10.66 56.7104 10.5114 56.6651 10.5055C56.606 10.5419 56.5521 10.587 56.5052 10.6394C55.9393 11.2359 55.3313 11.5336 54.6814 11.5327C54.2096 11.5406 53.7425 11.4349 53.3165 11.2238C52.8906 11.0126 52.5175 10.7018 52.2264 10.3156C51.6115 9.55418 51.2845 8.58575 51.3067 7.59164C51.3067 6.37314 51.6231 5.39205 52.2561 4.64839C52.9164 3.87824 53.8182 3.49316 54.9615 3.49316C55.7577 3.49316 56.3859 3.78307 56.8463 4.3629C56.8675 4.38938 56.8845 4.40263 56.9 4.40263C56.9453 4.40263 56.9977 4.2746 57.0557 4.02001C57.1137 3.76541 57.1844 3.63591 57.2651 3.63591C57.6258 3.66128 57.9841 3.71689 58.3362 3.80221C58.7002 3.87268 59.0605 3.96207 59.4158 4.07004C59.4922 4.10242 59.5304 4.14509 59.5304 4.1966C59.5256 4.25247 59.5175 4.308 59.5064 4.3629C59.3409 5.36562 59.2599 6.38147 59.2644 7.39886ZM56.8165 7.44595C56.8229 7.24224 56.7903 7.03924 56.7206 6.84875C56.6509 6.65826 56.5455 6.48408 56.4104 6.33635C56.1236 6.05443 55.7439 5.89736 55.3492 5.89736C54.9546 5.89736 54.5748 6.05443 54.288 6.33635C54.1548 6.48471 54.0511 6.65898 53.9829 6.84915C53.9146 7.03932 53.8832 7.24164 53.8904 7.44448C53.8871 7.64789 53.923 7.84993 53.9959 8.03872C54.0688 8.22751 54.1772 8.39923 54.3149 8.54379C54.4468 8.69135 54.607 8.80847 54.7852 8.88757C54.9634 8.96666 55.1555 9.00596 55.3492 9.00293C55.545 9.00932 55.7398 8.97338 55.9215 8.89739C56.1032 8.8214 56.2678 8.707 56.4048 8.56145C56.5418 8.41341 56.6489 8.23827 56.7196 8.0464C56.7903 7.85453 56.8233 7.64985 56.8165 7.44448V7.44595Z" fill="white"/>
<path d="M63.5586 6.58077C63.5586 8.01806 63.5633 9.12178 63.5728 9.89193C63.5728 10.0141 63.5812 10.2216 63.5954 10.5174C63.611 10.7852 63.618 10.9942 63.618 11.1413C63.618 11.2517 63.5558 11.3179 63.4284 11.3385C63.0202 11.3918 62.6087 11.413 62.1974 11.4018C61.8087 11.4169 61.4194 11.3957 61.0343 11.3385C60.984 11.3303 60.9378 11.3046 60.9034 11.2656C60.8689 11.2266 60.8482 11.1765 60.8447 11.1237V10.7852C60.8447 10.3172 60.8499 9.61526 60.8603 8.67931C60.8706 7.74335 60.8754 7.04384 60.8744 6.58077C60.8744 4.36744 60.8772 3.3584 60.8829 3.55363C60.8777 2.54689 60.8139 1.5414 60.6919 0.542684C60.6836 0.498041 60.6788 0.452754 60.6777 0.407295C60.6777 0.291036 60.7428 0.233643 60.8744 0.233643H63.5883C63.7143 0.233643 63.7737 0.289564 63.7624 0.399936L63.7553 0.547099C63.6232 2.81929 63.5577 4.83051 63.5586 6.58077Z" fill="white"/>
<path d="M73.3883 6.18836C73.3883 7.35389 72.8388 8.23932 71.7398 8.84464C71.638 8.89762 71.587 8.95355 71.587 9.01094C71.587 9.10022 71.8228 9.47303 72.2945 10.1294C72.7662 10.7857 73.002 11.1291 73.002 11.1595C73.002 11.3018 72.3308 11.3729 70.9885 11.3729C70.472 11.3729 70.1721 11.3037 70.0914 11.1669C69.8886 10.8156 69.5716 10.3104 69.1405 9.6511C69.1151 9.62068 68.659 9.58389 67.7723 9.54072C67.7723 9.70407 67.7723 9.96455 67.7793 10.3236C67.7864 10.6827 67.7878 10.9476 67.7878 11.1213C67.7919 11.1538 67.7892 11.187 67.7799 11.2184C67.7706 11.2498 67.755 11.2788 67.7342 11.3035C67.7133 11.3281 67.6876 11.3478 67.6587 11.3613C67.6299 11.3748 67.5987 11.3818 67.5671 11.3817C67.4751 11.392 67.0761 11.3979 66.3658 11.3979C66.0084 11.4086 65.6508 11.3978 65.2947 11.3655C65.1532 11.3405 65.0895 11.2316 65.0895 11.0418V6.20455C65.0895 5.55703 65.0669 4.58772 65.0216 3.29661C64.9763 2.00551 64.9518 1.03816 64.948 0.394565C64.948 0.268006 65.0173 0.203254 65.1532 0.197367C65.422 0.197367 65.8253 0.197367 66.3615 0.18118C66.503 0.170878 66.7493 0.139974 67.0987 0.0869955C67.3403 0.0461971 67.5842 0.0225962 67.8289 0.0163574C67.9095 0.0163574 67.9506 0.092882 67.9506 0.24446C67.9506 0.444601 67.935 0.716852 67.9053 1.05974C67.8699 1.46002 67.8487 1.73375 67.8444 1.88091C67.8001 3.01406 67.7779 3.89164 67.7779 4.51365C67.7779 4.66081 67.7963 4.73734 67.8317 4.74322C67.8981 4.69143 67.9593 4.63276 68.0142 4.5681C68.3207 4.2246 68.6933 3.95207 69.1077 3.76825C69.5222 3.58442 69.9692 3.49342 70.4197 3.50117C71.3073 3.50117 72.0115 3.7121 72.5322 4.13397C73.1039 4.60391 73.3892 5.2887 73.3883 6.18836ZM70.3617 6.70784C70.3617 6.06916 70.015 5.7503 69.3217 5.75129C68.9641 5.76733 68.6192 5.89389 68.3312 6.11478C67.9539 6.3728 67.7652 6.65486 67.7652 6.96096C67.7652 7.39755 67.8232 7.66097 67.9392 7.75123C68.0336 7.81402 68.3251 7.84541 68.8137 7.84541C69.8466 7.84247 70.3626 7.46328 70.3617 6.70784Z" fill="white"/>
<path d="M77.6101 9.61942C77.6145 9.86694 77.5705 10.1128 77.4811 10.3422C77.3916 10.5716 77.2583 10.7798 77.0894 10.9542C76.9252 11.1297 76.7289 11.2693 76.512 11.3646C76.2951 11.4599 76.062 11.5089 75.8266 11.5089C75.5911 11.5089 75.358 11.4599 75.1411 11.3646C74.9242 11.2693 74.7279 11.1297 74.5637 10.9542C74.2317 10.5974 74.0461 10.1203 74.0461 9.62383C74.0461 9.12733 74.2317 8.65028 74.5637 8.29348C74.7281 8.11829 74.9245 7.97907 75.1413 7.88401C75.3582 7.78896 75.5912 7.73999 75.8266 7.73999C76.0619 7.73999 76.2949 7.78896 76.5118 7.88401C76.7286 7.97907 76.925 8.11829 77.0894 8.29348C77.2575 8.4667 77.3903 8.67341 77.4797 8.90124C77.5692 9.12907 77.6135 9.37334 77.6101 9.61942Z" fill="white"/>
<path d="M85.969 7.46215C85.969 8.66496 85.6153 9.64015 84.9078 10.3877C84.2003 11.1353 83.2721 11.5091 82.1232 11.5091C81.0082 11.5091 80.0913 11.1402 79.3725 10.4025C78.6537 9.66468 78.2938 8.71646 78.2928 7.5578C78.2928 6.33439 78.6372 5.34202 79.3258 4.5807C80.0144 3.81938 80.9468 3.43872 82.1232 3.43872C83.2683 3.43872 84.1956 3.81153 84.905 4.55716C85.6143 5.30278 85.969 6.27111 85.969 7.46215ZM83.4759 7.46215C83.4806 7.06061 83.3488 6.67024 83.1037 6.3599C82.9902 6.20708 82.8437 6.08416 82.6761 6.00108C82.5084 5.918 82.3244 5.87708 82.1387 5.88162C81.9484 5.87777 81.7598 5.92005 81.5879 6.00511C81.416 6.09016 81.2655 6.21566 81.1482 6.37167C80.9077 6.67906 80.7812 7.06598 80.7917 7.46215C80.7823 7.86207 80.9113 8.25219 81.1553 8.56145C81.2725 8.71746 81.4231 8.84296 81.595 8.92802C81.7669 9.01307 81.9555 9.05535 82.1458 9.0515C82.3344 9.05466 82.5211 9.012 82.6911 8.92693C82.8611 8.84186 83.0096 8.71672 83.1249 8.56145C83.3645 8.25014 83.4903 7.86071 83.4801 7.46215H83.4759Z" fill="white"/>
<path d="M91.9278 6.42633C91.9278 6.63089 91.8189 6.7339 91.601 6.7339C91.5033 6.7339 91.3632 6.7339 91.1765 6.71477C90.9897 6.69564 90.8524 6.69417 90.7619 6.69417C90.3402 6.69417 90.0539 6.76284 89.903 6.9002C89.7521 7.03755 89.6771 7.31667 89.678 7.73755C89.678 7.96418 89.678 8.30854 89.6893 8.76769C89.7007 9.22684 89.7007 9.57267 89.7007 9.79783C89.7007 9.94499 89.7106 10.1775 89.7304 10.4807C89.7502 10.7838 89.7615 11.009 89.7615 11.1576C89.7615 11.2827 89.678 11.3548 89.5111 11.3695C89.2677 11.3911 88.8951 11.4019 88.3932 11.4019C87.9121 11.4019 87.5273 11.3862 87.2386 11.3548C87.0716 11.3332 86.9882 11.2464 86.9882 11.0943C86.9882 10.6715 86.9905 10.0402 86.9952 9.20035C87 8.36054 87 7.7297 86.9952 7.30784C86.9952 6.06873 86.8863 5.04889 86.6684 4.24833C86.6597 4.20971 86.655 4.17025 86.6542 4.1306C86.6525 4.09458 86.6629 4.05906 86.6835 4.03008C86.7042 4.00111 86.7338 3.98046 86.7674 3.97166C87.0504 3.94076 87.4537 3.88189 87.9914 3.79801C88.7922 3.63466 89.204 3.55225 89.2295 3.55225C89.3214 3.55225 89.3795 3.71854 89.4049 4.05113C89.4304 4.38372 89.4757 4.54854 89.5464 4.54854C89.4747 4.54854 89.6823 4.4102 90.169 4.13354C90.5966 3.87384 91.0805 3.73107 91.5755 3.71854C91.8585 3.71854 92 3.78182 92 3.90838C91.9956 4.12542 91.98 4.34207 91.9533 4.55737C91.9236 4.85169 91.9052 5.07391 91.9009 5.20488C91.8967 5.33586 91.9009 5.56102 91.908 5.81414C91.9222 6.11876 91.9278 6.32626 91.9278 6.42633Z" fill="white"/>
<path d="M100.338 9.29592C100.338 10.7989 100.034 11.8781 99.4254 12.5335C98.7972 13.2036 97.7539 13.5381 96.2955 13.5371C95.7105 13.5189 95.1282 13.4475 94.5551 13.3238C93.6175 13.1442 93.1487 12.9333 93.1487 12.691C93.1487 12.5929 93.2576 12.0768 93.4755 11.1428C93.5109 10.9957 93.5661 10.9206 93.6425 10.9206C93.6716 10.9275 93.6996 10.9384 93.726 10.953C94.507 11.3533 95.2291 11.5534 95.8923 11.5534C96.2709 11.5499 96.6433 11.453 96.979 11.2708C97.4148 11.0442 97.6327 10.7587 97.6327 10.4173V9.88752C97.1167 10.3918 96.4531 10.6444 95.6418 10.6454C95.199 10.6582 94.7588 10.5693 94.3528 10.3848C93.9468 10.2004 93.5849 9.92509 93.293 9.57847C92.6968 8.88436 92.3788 7.97912 92.4044 7.04875C92.4044 6.04216 92.6874 5.20823 93.2534 4.54698C93.8467 3.86023 94.6221 3.51685 95.5796 3.51685C96.3437 3.51685 96.929 3.80136 97.3355 4.37039C97.4162 4.48665 97.477 4.54404 97.5025 4.54404C97.528 4.54404 97.5704 4.44986 97.5704 4.26002C97.5704 3.83913 97.6157 3.62722 97.7119 3.62722C97.8081 3.62722 98.2312 3.67137 99.0264 3.75819C99.8216 3.84502 100.235 3.89358 100.265 3.90536C100.305 3.9192 100.341 3.94715 100.364 3.9846C100.388 4.02205 100.399 4.06677 100.395 4.11138C100.395 4.47537 100.383 5.0179 100.361 5.739C100.338 6.46157 100.325 7.0046 100.325 7.36809C100.325 7.58491 100.328 7.90867 100.334 8.33937C100.335 8.75584 100.338 9.08107 100.338 9.29592ZM97.7586 7.10761C97.7638 6.73734 97.6321 6.37913 97.3907 6.10691C97.276 5.96979 97.1339 5.86041 96.9743 5.78643C96.8147 5.71246 96.6415 5.67567 96.4668 5.67866C96.2911 5.67608 96.117 5.71439 95.9574 5.79077C95.7978 5.86716 95.6566 5.9797 95.5442 6.12015C95.3032 6.39507 95.1712 6.75473 95.1749 7.12675C95.1697 7.49736 95.3049 7.85523 95.5513 8.12304C95.6661 8.2571 95.8072 8.36393 95.9652 8.4363C96.1231 8.50866 96.2942 8.54486 96.4668 8.54245C96.6414 8.54613 96.8147 8.5098 96.9744 8.43605C97.1341 8.3623 97.2762 8.25292 97.3907 8.11568C97.6325 7.84079 97.7642 7.48015 97.7586 7.10761Z" fill="white"/>
<path d="M75.3767 17.0855C75.3775 17.0939 75.3766 17.1024 75.3742 17.1105C75.3717 17.1186 75.3678 17.1261 75.3625 17.1325C75.3572 17.139 75.3507 17.1442 75.3435 17.148C75.3362 17.1518 75.3282 17.1541 75.3201 17.1546C75.3201 17.2179 75.3201 17.2179 75.2635 17.2238C75.2341 17.2631 75.1918 17.2899 75.1447 17.2989C75.1155 17.3382 75.073 17.3645 75.0258 17.3724C74.9386 17.3779 74.8545 17.4079 74.7824 17.4593C74.6546 17.4609 74.529 17.4942 74.4159 17.5564C74.1047 17.5844 73.8627 17.6712 73.6137 17.6933C73.0815 17.7942 72.5444 17.865 72.0048 17.9052C71.3214 17.967 70.7059 18.0862 70.147 18.1377C69.5647 18.1366 68.9827 18.1685 68.4038 18.2333C68.3168 18.2512 68.2267 18.2366 68.1491 18.1921L67.5901 18.2436C67.6015 18.3702 67.4317 18.5777 66.686 18.6454L63.0948 19.1001C62.1638 19.1855 61.3516 19.1958 60.3583 19.287C59.556 19.4239 58.257 19.6064 57.5128 19.6741C57.0104 19.6564 56.4572 19.7712 55.9563 19.8212C55.7709 19.8389 55.5177 19.7977 55.2686 19.8212C54.7097 19.8713 54.1565 19.9861 53.5353 20.0434C53.5353 20.1067 53.3598 20.1906 52.9919 20.2848C52.1288 20.432 51.3209 20.5011 50.3898 20.5791L49.0244 20.7042C48.6702 20.6624 48.3133 20.6521 47.9575 20.6733C46.967 20.8205 46.1053 20.9676 45.112 21.0618L40.2686 21.5033C40.403 21.6196 38.6753 21.9036 38.2409 21.9448L33.5843 22.3701C32.7763 22.4437 31.9075 22.5173 31.0373 22.5393C30.1853 22.6193 29.3288 22.6336 28.4748 22.582C28.0714 22.5639 27.6699 22.5147 27.2735 22.4348C26.8383 22.4154 26.4087 22.3255 26.0001 22.1685C25.7945 22.1065 25.5976 22.0169 25.4143 21.9021C25.2126 21.8074 25.0309 21.6724 24.8794 21.5048C24.8794 21.4415 24.8072 21.3841 24.8016 21.3208L24.786 21.131L24.9459 20.7969C25.1214 20.6498 25.3081 20.6365 25.4878 20.5556C25.6124 20.5438 25.6746 20.5394 25.6803 20.6012C25.8352 20.5309 26.0023 20.4944 26.1713 20.4938H26.2335C26.6289 20.4716 27.0218 20.4145 27.4079 20.3231C27.7402 20.277 28.0685 20.2042 28.3899 20.1053L30.4402 19.9184C31.8679 19.7874 33.3522 19.5887 34.8436 19.4519C36.2656 19.2591 37.6891 19.0648 39.1224 18.9971C39.8045 18.9353 40.4313 18.9427 41.1147 18.8794C41.6114 18.8338 42.0514 18.8573 42.4858 18.8176L43.4763 18.7278C44.4668 18.5806 45.4473 18.357 46.5029 18.2598L49.9186 17.9478L53.282 17.7683C54.2725 17.6785 55.263 17.5873 56.2676 17.5593C56.6411 17.5255 57.0812 17.549 57.4533 17.5152C62.9278 17.1429 68.408 16.8338 73.3505 16.8294C73.5584 16.7968 73.7701 16.7993 73.9773 16.8368L74.4117 16.797C74.4117 16.7338 74.4018 16.6705 74.5249 16.6587C74.5938 16.6013 74.68 16.5711 74.7683 16.5734L75.0173 16.5498C75.0796 16.5498 75.0796 16.5498 75.1461 16.6028L75.2706 16.591C75.2706 16.6543 75.2706 16.6543 75.3385 16.6484C75.339 16.6568 75.3412 16.665 75.3449 16.6725C75.3485 16.68 75.3536 16.6866 75.3599 16.692C75.3661 16.6974 75.3733 16.7014 75.3811 16.7037C75.3888 16.7061 75.397 16.7068 75.405 16.7058L75.4319 17.0237C75.4319 17.0393 75.4263 17.0544 75.416 17.0659C75.4058 17.0774 75.3917 17.0844 75.3767 17.0855Z" fill="white"/>
</svg>
