<svg width="45" height="33" viewBox="0 0 45 33" fill="none" xmlns="http://www.w3.org/2000/svg">
<path d="M40.9591 20.2276C40.9597 20.2374 40.9591 20.2473 40.9573 20.2567C40.9555 20.2661 40.9525 20.2748 40.9486 20.2824C40.9447 20.2899 40.9399 20.296 40.9345 20.3005C40.9291 20.3049 40.9233 20.3075 40.9172 20.3081C40.9172 20.3819 40.9172 20.3819 40.8753 20.3887C40.8535 20.4345 40.8222 20.4657 40.7873 20.4761C40.7657 20.522 40.7342 20.5526 40.6993 20.5619C40.6347 20.5682 40.5725 20.6032 40.5191 20.663C40.4245 20.6649 40.3314 20.7037 40.2478 20.7762C40.0173 20.8087 39.8381 20.9099 39.6537 20.9356C39.2597 21.0532 38.862 21.1357 38.4625 21.1825C37.9565 21.2545 37.5007 21.3934 37.0869 21.4534C36.6557 21.452 36.2248 21.4892 35.7961 21.5648C35.7318 21.5856 35.665 21.5686 35.6075 21.5168L35.1937 21.5768C35.2021 21.7242 35.0764 21.966 34.5242 22.0448L31.8652 22.5746C31.1758 22.674 30.5744 22.686 29.8389 22.7923C29.2449 22.9517 28.2831 23.1643 27.732 23.2432C27.3601 23.2226 26.9505 23.3563 26.5796 23.4146C26.4423 23.4352 26.2548 23.3872 26.0704 23.4146C25.6566 23.4729 25.2469 23.6066 24.787 23.6735C24.787 23.7472 24.6571 23.845 24.3847 23.9547C23.7456 24.1261 23.1473 24.2067 22.458 24.2976L21.4469 24.4433C21.1847 24.3946 20.9205 24.3825 20.657 24.4073C19.9236 24.5787 19.2856 24.7502 18.5501 24.8599L14.9638 25.3742C15.0634 25.5096 13.7841 25.8405 13.4625 25.8885L10.0145 26.384C9.41631 26.4697 8.77303 26.5554 8.1287 26.5811C7.49786 26.6743 6.86367 26.6909 6.23133 26.6309C5.93265 26.6098 5.63534 26.5525 5.34184 26.4594C5.01959 26.4367 4.70147 26.3321 4.39892 26.1491C4.24673 26.0769 4.10093 25.9726 3.96518 25.8388C3.81589 25.7285 3.68133 25.5712 3.56915 25.3759C3.56915 25.3022 3.51572 25.2353 3.51152 25.1616L3.5 24.9405L3.61839 24.5513C3.7483 24.3798 3.8866 24.3644 4.01966 24.2701C4.11185 24.2564 4.15795 24.2513 4.16214 24.3233C4.27684 24.2414 4.40056 24.1988 4.52569 24.1981H4.57179C4.86457 24.1723 5.15548 24.1058 5.44137 23.9992C5.68739 23.9456 5.93048 23.8608 6.16847 23.7455L7.68657 23.5278C8.74369 23.3752 9.84272 23.1438 10.947 22.9843C11.9999 22.7597 13.0539 22.5334 14.1152 22.4546C14.6202 22.3826 15.0843 22.3911 15.5904 22.3174C15.9581 22.2643 16.2839 22.2917 16.6056 22.2454L17.339 22.1408C18.0723 21.9694 18.7984 21.7088 19.58 21.5957L22.1091 21.2322L24.5994 21.023C25.3328 20.9185 26.0662 20.8122 26.8101 20.7796C27.0867 20.7402 27.4125 20.7676 27.688 20.7282C31.7416 20.2944 35.7993 19.9344 39.4588 19.9293C39.6128 19.8912 39.7696 19.8941 39.923 19.9378L40.2446 19.8915C40.2446 19.8178 40.2373 19.7441 40.3284 19.7304C40.3795 19.6636 40.4433 19.6283 40.5086 19.6309L40.693 19.6035C40.7391 19.6035 40.7391 19.6035 40.7884 19.6652L40.8806 19.6515C40.8806 19.7252 40.8806 19.7252 40.9309 19.7184C40.9312 19.7282 40.9328 19.7377 40.9356 19.7465C40.9383 19.7552 40.9421 19.7629 40.9467 19.7692C40.9513 19.7754 40.9566 19.7801 40.9624 19.7829C40.9681 19.7856 40.9741 19.7864 40.9801 19.7852L41 20.1556C41 20.1738 40.9958 20.1914 40.9882 20.2047C40.9807 20.2181 40.9703 20.2263 40.9591 20.2276Z" fill="white"/>
<path d="M14.1718 17.3092C14.1502 17.4565 14.085 17.5929 13.9853 17.6992C12.8986 19.0522 11.4538 19.7287 9.65095 19.7287C7.80853 19.7287 6.31369 19.0712 5.16643 17.7562C4.05548 16.4815 3.5 14.8742 3.5 12.9345C3.5 11.0557 4.04668 9.46117 5.14003 8.15076C5.67047 7.48972 6.33606 6.96169 7.08768 6.60565C7.83929 6.24962 8.65776 6.07466 9.48266 6.09369C11.3966 6.09369 12.8975 6.70862 13.9853 7.9385C14.0839 8.03251 14.1466 8.16061 14.1619 8.29917C14.1619 8.41652 13.9573 8.85314 13.5464 9.60556C13.1356 10.358 12.8766 10.7842 12.771 10.8757C12.7479 10.9 12.7204 10.919 12.69 10.9318C12.6597 10.9446 12.6271 10.9507 12.5944 10.9499C12.4323 10.8461 12.2832 10.7214 12.1506 10.5789C11.866 10.3093 11.5507 10.0774 11.2118 9.88858C10.7626 9.64521 10.2641 9.51798 9.7582 9.51754C9.35877 9.50339 8.96182 9.58845 8.59989 9.76573C8.23795 9.94301 7.92134 10.2075 7.67598 10.5375C7.18851 11.2053 6.93723 12.0292 6.96486 12.8689C6.93735 13.7201 7.19143 14.5552 7.68423 15.2332C7.92701 15.5672 8.24275 15.8355 8.60502 16.0156C8.96728 16.1958 9.36554 16.2825 9.76645 16.2686C10.2726 16.2724 10.7728 16.1543 11.2283 15.9235C11.5607 15.7487 11.8706 15.5307 12.1506 15.2746C12.2812 15.1414 12.4269 15.0255 12.5845 14.9294C12.6191 14.9327 12.6526 14.9435 12.683 14.961C12.7134 14.9785 12.74 15.0024 12.7611 15.0313C12.8557 15.1463 13.1125 15.5329 13.5316 16.191C13.9556 16.864 14.1718 17.2385 14.1718 17.3092Z" fill="white"/>
<path d="M31.9274 11.058C31.9274 12.0901 31.8479 12.8081 31.689 13.2121C31.3208 14.0248 30.9049 14.8133 30.4436 15.573C29.7675 16.7565 29.3019 17.4912 29.0469 17.7769C28.869 17.9616 28.4545 18.0632 27.7855 18.0632C27.4346 18.0782 27.0831 18.0584 26.7358 18.0041C26.6098 17.9692 26.4946 17.9011 26.4013 17.8065C26.0372 17.437 25.4762 16.5275 24.7182 15.0779C23.9188 16.5595 23.375 17.469 23.0867 17.8065C22.9355 17.9783 22.5174 18.0632 21.8413 18.0632C21.5277 18.0771 21.2135 18.0573 20.9037 18.0041C20.5858 17.9118 20.0479 17.1944 19.29 15.852C18.7953 15.0011 18.3515 14.1195 17.961 13.2121C17.7961 12.7896 17.7137 12.0723 17.7137 11.0599C17.7137 9.83571 17.7451 9.08815 17.808 8.8172C17.8234 8.73896 17.866 8.66935 17.9277 8.62165C17.9894 8.57396 18.0658 8.5515 18.1425 8.55857C18.4354 8.55857 18.8749 8.56842 19.4608 8.58813C20.0468 8.60783 20.4844 8.61768 20.7738 8.61768C20.9197 8.61768 20.9927 8.72668 20.9927 8.94467C20.9927 9.1294 20.9927 9.43052 20.9731 9.82401C20.9535 10.2175 20.9553 10.5094 20.9553 10.7015C20.9553 11.5014 20.9731 12.0944 21.0122 12.4768C21.0241 12.6234 21.1943 12.9929 21.5229 13.5852C21.852 14.1838 22.0566 14.4831 22.1296 14.4831C22.2452 14.4831 22.4551 14.1875 22.7612 13.6C22.9486 13.2429 23.1115 12.8725 23.2487 12.4916C23.3246 12.2453 23.3625 11.648 23.3625 10.6997C23.3625 10.502 23.3447 10.2064 23.3109 9.81293C23.2771 9.41944 23.2575 9.12571 23.2575 8.93358C23.2575 8.74146 23.3305 8.62692 23.4782 8.62692C23.6561 8.62692 24.0119 8.62323 24.5457 8.61584L24.9371 8.6066H24.9033C24.8873 8.6066 24.8837 8.6066 24.889 8.6066H25.2039C25.4412 8.59921 25.797 8.60598 26.2714 8.62692C26.4102 8.64539 26.4814 8.74885 26.4814 8.93358C26.4814 9.1799 26.4654 9.5623 26.4333 10.0808C26.4013 10.5993 26.3853 10.9811 26.3853 11.2262C26.3667 11.6545 26.3923 12.0837 26.4618 12.5064C26.5846 12.8825 26.7314 13.2497 26.9013 13.6056C27.1883 14.2016 27.3888 14.4997 27.5026 14.4997C27.6165 14.4997 27.83 14.1986 28.1431 13.5963C28.442 13.0199 28.6015 12.6431 28.6217 12.4657C28.6466 12.2194 28.6591 11.0494 28.6591 8.95575C28.6591 8.72483 28.7231 8.60845 28.8512 8.60845C29.143 8.60845 29.5842 8.59859 30.1749 8.57889C30.7656 8.55918 31.2062 8.54933 31.4968 8.54933C31.5747 8.54482 31.6513 8.57078 31.7116 8.62209C31.7719 8.67339 31.8114 8.74631 31.8224 8.82644C31.8924 9.09738 31.9274 9.84125 31.9274 11.058Z" fill="white"/>
</svg>
