<svg width="37" height="37" viewBox="0 0 37 37" fill="none" xmlns="http://www.w3.org/2000/svg">
<path d="M22.5068 26.1104L22.7334 26.1162C23.8608 26.1721 24.9304 26.6453 25.7324 27.4473C26.5878 28.3027 27.0684 29.4631 27.0684 30.6729V33.5674C24.4064 35.121 21.3104 36.0127 18.0059 36.0127C14.7008 36.0126 11.6047 35.1206 8.94238 33.5664V30.6729C8.94238 29.4633 9.42322 28.3027 10.2783 27.4473C11.1337 26.5919 12.2942 26.1104 13.5039 26.1104H22.5068ZM18.0059 0C27.9504 0 36.0127 8.06225 36.0127 18.0068C36.0127 23.3681 33.6683 28.1809 29.9502 31.4795V30.6729C29.9502 28.699 29.1652 26.8059 27.7695 25.4102C26.461 24.1016 24.7156 23.3305 22.876 23.2393L22.5068 23.2295H13.5039C11.5301 23.2296 9.63689 24.0145 8.24121 25.4102C6.84582 26.8059 6.06152 28.6992 6.06152 30.6729V31.4785C2.34402 28.18 2.99173e-05 23.3677 0 18.0068C0 8.06241 8.06149 0.000249704 18.0059 0ZM18.0059 5.22363C13.8956 5.22373 10.5635 8.55571 10.5635 12.666C10.5637 16.7762 13.8956 20.1083 18.0059 20.1084C22.116 20.1083 25.448 16.7762 25.4482 12.666C25.4482 8.55574 22.1161 5.22377 18.0059 5.22363ZM18.0059 8.10449C20.525 8.10463 22.5673 10.1469 22.5674 12.666C22.5672 15.185 20.5249 17.2274 18.0059 17.2275C15.4868 17.2274 13.4445 15.1851 13.4443 12.666C13.4444 10.1468 15.4867 8.10459 18.0059 8.10449Z" fill="#3BAA5C"/>
</svg>
