<svg width="172" height="56" viewBox="0 0 172 56" fill="none" xmlns="http://www.w3.org/2000/svg">
<path d="M15.8391 15.9211C15.8085 16.1287 15.7161 16.3211 15.5747 16.4711C14.0333 18.3793 11.9841 19.3333 9.42715 19.3333C6.814 19.3333 4.69384 18.406 3.06666 16.5515C1.49097 14.7537 0.703125 12.4869 0.703125 9.7513C0.703125 7.10165 1.47849 4.85278 3.02922 3.00468C3.78155 2.07239 4.72556 1.32771 5.7916 0.825579C6.85763 0.323452 8.01848 0.0767023 9.18846 0.103539C11.903 0.103539 14.0318 0.970798 15.5747 2.70532C15.7144 2.83791 15.8034 3.01857 15.8251 3.21399C15.8251 3.37949 15.5349 3.99526 14.9522 5.05641C14.3695 6.11757 14.0021 6.71873 13.8523 6.84772C13.8196 6.88193 13.7806 6.90886 13.7375 6.92685C13.6945 6.94484 13.6483 6.95353 13.602 6.95238C13.372 6.80595 13.1605 6.63016 12.9725 6.4291C12.5688 6.0489 12.1216 5.72192 11.6409 5.45556C11.0038 5.11233 10.2968 4.9329 9.57926 4.93229C9.01274 4.91233 8.44974 5.03228 7.9364 5.28231C7.42306 5.53234 6.974 5.90532 6.62601 6.37069C5.93462 7.3126 5.57822 8.47449 5.61741 9.65881C5.57839 10.8593 5.93876 12.037 6.63771 12.9932C6.98204 13.4642 7.42986 13.8426 7.94367 14.0967C8.45749 14.3507 9.02234 14.4731 9.59096 14.4535C10.3088 14.4588 11.0182 14.2922 11.6643 13.9667C12.1357 13.7203 12.5753 13.4128 12.9725 13.0516C13.1577 12.8637 13.3644 12.7003 13.5879 12.5648C13.6369 12.5694 13.6845 12.5846 13.7276 12.6093C13.7707 12.634 13.8084 12.6678 13.8383 12.7084C13.9725 12.8707 14.3368 13.4159 14.9312 14.344C15.5326 15.2932 15.8391 15.8213 15.8391 15.9211Z" fill="white"/>
<path d="M21.5692 10.9855C21.5692 13.3625 21.577 15.1879 21.5926 16.4616C21.5926 16.6636 21.6066 17.0068 21.63 17.496C21.6558 17.9389 21.6698 18.2845 21.6698 18.5279C21.6698 18.7105 21.5645 18.82 21.3539 18.8541C20.6788 18.9422 19.9982 18.9772 19.318 18.9587C18.6751 18.9836 18.0313 18.9485 17.3944 18.8541C17.3113 18.8401 17.2352 18.7974 17.1784 18.733C17.1215 18.6685 17.0871 18.586 17.0808 18.4987V17.9389C17.0808 17.165 17.0894 16.004 17.1066 14.4561C17.1237 12.9082 17.1315 11.7513 17.13 10.9855C17.13 7.32495 17.1346 5.65614 17.144 5.97903C17.1349 4.31414 17.0302 2.65129 16.8304 0.999388C16.815 0.925781 16.8063 0.850798 16.8047 0.775475C16.8047 0.583201 16.9123 0.488281 17.13 0.488281H21.6183C21.8266 0.488281 21.9249 0.580767 21.9062 0.763306L21.8945 1.00669C21.6776 4.76455 21.5692 8.0908 21.5692 10.9855Z" fill="white"/>
<path d="M35.4916 11.7754C35.4916 12.6564 35.2194 13.1578 34.6749 13.2795C34.5813 13.2974 33.7139 13.3931 32.0727 13.5667C31.0852 13.6803 29.6109 13.8158 27.6498 13.9732C27.7148 14.2619 27.8456 14.5301 28.0314 14.7551C28.2171 14.9801 28.4523 15.1552 28.717 15.2655C29.2357 15.5184 29.8033 15.6442 30.3761 15.633C31.1643 15.6215 31.9372 15.4057 32.625 15.0051L33.5821 14.3772C33.7584 14.4648 34.0532 14.9094 34.4667 15.7109C34.8832 16.5141 35.0891 17.0228 35.0891 17.2394C35.0891 17.3027 35.026 17.4024 34.9019 17.5412C33.8785 18.677 32.2903 19.2449 30.1374 19.2449C28.1436 19.2449 26.5344 18.6388 25.3097 17.4268C24.0523 16.1969 23.4282 14.554 23.4376 12.4982C23.4376 10.4944 23.9985 8.85154 25.1202 7.56971C26.2715 6.25544 27.8035 5.5983 29.7162 5.5983C30.4846 5.58626 31.2467 5.74307 31.9528 6.05846C32.659 6.37385 33.2931 6.84073 33.8138 7.42855C34.3557 8.00188 34.783 8.68122 35.071 9.42732C35.359 10.1734 35.502 10.9715 35.4916 11.7754ZM31.0922 10.9795C31.0948 10.4472 30.8965 9.93514 30.5399 9.5533C30.3746 9.35921 30.1713 9.20408 29.9437 9.09831C29.7161 8.99254 29.4694 8.93855 29.2201 8.93997C28.9644 8.93742 28.712 8.99916 28.4842 9.11993C28.2565 9.24071 28.0601 9.41694 27.9119 9.63361C27.5961 10.0641 27.431 10.5939 27.4439 11.1353C27.4439 11.3787 27.5609 11.4882 27.7949 11.4882C28.761 11.4562 29.7241 11.3587 30.678 11.1961C30.9541 11.145 31.0922 11.0744 31.0922 10.9795Z" fill="white"/>
<path d="M49.5141 12.3383C49.5141 13.0101 49.5515 14.0079 49.6264 15.332C49.7013 16.656 49.7387 17.6498 49.7387 18.3134C49.7387 18.6615 49.5936 18.8489 49.2988 18.8756C48.2613 18.9486 47.0718 18.9852 45.7301 18.9852C45.5709 18.9852 45.4633 18.7418 45.4095 18.2331C45.3557 17.7244 45.2901 17.4786 45.2152 17.4689C45.1174 17.5292 45.0283 17.6037 44.9508 17.6903C44.0148 18.6769 43.0093 19.1693 41.9344 19.1677C41.1542 19.1809 40.3816 19.0061 39.6772 18.6569C38.9728 18.3077 38.3557 17.7936 37.8742 17.1549C36.8589 15.8975 36.3182 14.2988 36.3532 12.6572C36.3532 10.6419 36.8766 9.01938 37.9234 7.78947C39.0154 6.51576 40.5077 5.87891 42.4001 5.87891C43.7152 5.87891 44.7542 6.35837 45.5171 7.31731C45.5499 7.36112 45.578 7.38302 45.6037 7.38302C45.6786 7.38302 45.7652 7.17128 45.8611 6.75022C45.9571 6.32917 46.0741 6.11499 46.2075 6.11499C46.8037 6.16187 47.3953 6.25873 47.9766 6.40462C48.5785 6.52116 49.1744 6.669 49.7621 6.84758C49.8885 6.90112 49.9517 6.9717 49.9517 7.05689C49.9436 7.14929 49.9303 7.24112 49.9119 7.33191C49.6398 8.98553 49.5066 10.6607 49.5141 12.3383ZM45.4656 12.4162C45.4767 12.0792 45.423 11.7433 45.3077 11.4282C45.1924 11.1131 45.0177 10.8251 44.794 10.5811C44.3196 10.1148 43.6916 9.85508 43.0389 9.85508C42.3862 9.85508 41.7582 10.1148 41.2838 10.5811C41.0635 10.8265 40.8921 11.1147 40.7792 11.4292C40.6664 11.7437 40.6144 12.0783 40.6262 12.4138C40.6214 12.7501 40.6809 13.0841 40.8015 13.3962C40.922 13.7084 41.1011 13.9925 41.3283 14.2319C41.5464 14.4759 41.8114 14.6696 42.1061 14.8004C42.4008 14.9312 42.7186 14.9962 43.0389 14.9912C43.3626 15.0018 43.685 14.9423 43.9855 14.8167C44.286 14.691 44.5581 14.5018 44.7847 14.2611C45.0113 14.0162 45.1883 13.7266 45.3053 13.4093C45.4223 13.0919 45.4768 12.7534 45.4656 12.4138V12.4162Z" fill="white"/>
<path d="M64.3816 18.422C64.3854 18.4723 64.3793 18.523 64.3636 18.5708C64.3479 18.6186 64.3229 18.6626 64.2903 18.7C64.2576 18.7374 64.2179 18.7674 64.1736 18.7883C64.1294 18.8091 64.0815 18.8203 64.0329 18.8211C63.8004 18.8552 63.1959 18.8722 62.2193 18.8722C61.5733 18.8923 60.9267 18.8671 60.284 18.7968C60.1672 18.777 60.0625 18.7103 59.9925 18.6111C59.9225 18.5119 59.8927 18.388 59.9096 18.2662C59.9096 17.8622 59.9221 17.2513 59.947 16.4335C59.972 15.6158 59.9837 15 59.9821 14.5862C59.9821 14.2674 59.9821 13.7928 59.9587 13.16C59.9353 12.5272 59.933 12.0502 59.933 11.7338C59.933 10.5542 59.4408 9.96437 58.4564 9.96437C58.0472 9.9958 57.6552 10.1478 57.3261 10.4025C56.858 10.731 56.624 11.0523 56.624 11.376V18.3441C56.633 18.4028 56.6299 18.4629 56.6149 18.5203C56.6 18.5777 56.5735 18.6311 56.5373 18.6771C56.501 18.7231 56.4558 18.7606 56.4046 18.7871C56.3534 18.8136 56.2974 18.8285 56.2402 18.8309C55.9501 18.8649 55.358 18.882 54.4641 18.882C53.8337 18.8989 53.2029 18.8737 52.5756 18.8065C52.5233 18.8056 52.4716 18.7938 52.4238 18.7717C52.3759 18.7496 52.3328 18.7178 52.297 18.6781C52.2612 18.6383 52.2335 18.5915 52.2154 18.5404C52.1973 18.4893 52.1893 18.435 52.1918 18.3806C52.1918 17.7089 52.1957 16.6972 52.2035 15.3456C52.2113 13.994 52.216 12.9783 52.2176 12.2984C52.2176 10.1534 52.0561 8.46999 51.7331 7.2482C51.7222 7.18559 51.7175 7.12197 51.7191 7.05836C51.7161 6.99613 51.7327 6.93457 51.7665 6.88314C51.8003 6.8317 51.8495 6.79322 51.9063 6.7736C52.4289 6.71356 53.124 6.61864 53.9914 6.48884C55.305 6.21949 56.0452 6.08482 56.2122 6.08482C56.3034 6.08482 56.3736 6.37445 56.4228 6.95614C56.4719 7.53782 56.5421 7.82745 56.6334 7.82745C56.5429 7.82745 56.9875 7.52809 57.9673 6.92936C58.947 6.33064 59.8051 6.03127 60.5414 6.03127C61.4788 5.99106 62.4044 6.26026 63.1858 6.80037C63.5641 7.079 63.8694 7.45169 64.0737 7.88445C64.2781 8.31721 64.3751 8.79629 64.3558 9.27802V13.3985C64.3558 13.9583 64.3597 14.7955 64.3675 15.9102C64.3753 17.0249 64.38 17.8622 64.3816 18.422Z" fill="white"/>
<path d="M84.6407 9.78629C84.6407 11.146 84.5361 12.092 84.3271 12.6242C83.8429 13.6949 83.2958 14.7337 82.689 15.7346C81.7997 17.2939 81.1874 18.2617 80.852 18.6382C80.618 18.8816 80.0727 19.0154 79.1928 19.0154C78.7313 19.0351 78.269 19.009 77.8121 18.9375C77.6464 18.8916 77.4949 18.8019 77.3722 18.6771C76.8933 18.1904 76.1553 16.9921 75.1584 15.0823C74.1069 17.0343 73.3916 18.2325 73.0125 18.6771C72.8136 18.9035 72.2637 19.0154 71.3744 19.0154C70.9619 19.0337 70.5486 19.0076 70.1412 18.9375C69.7231 18.8159 69.0156 17.8707 68.0187 16.1021C67.368 14.9812 66.7842 13.8196 66.2706 12.6242C66.0537 12.0676 65.9453 11.1225 65.9453 9.78873C65.9453 8.1759 65.9867 7.191 66.0693 6.83404C66.0896 6.73096 66.1457 6.63926 66.2268 6.57642C66.308 6.51357 66.4085 6.48399 66.5093 6.4933C66.8946 6.4933 67.4726 6.50628 68.2433 6.53224C69.014 6.5582 69.5897 6.57118 69.9703 6.57118C70.1622 6.57118 70.2582 6.71478 70.2582 7.00197C70.2582 7.24536 70.2582 7.64208 70.2324 8.16048C70.2067 8.67889 70.209 9.06344 70.209 9.31656C70.209 10.3704 70.2324 11.1517 70.2839 11.6555C70.2995 11.8486 70.5234 12.3353 70.9555 13.1158C71.3885 13.9044 71.6576 14.2986 71.7535 14.2986C71.9056 14.2986 72.1818 13.9092 72.5843 13.1353C72.8308 12.6648 73.0451 12.1768 73.2255 11.675C73.3253 11.3504 73.3752 10.5635 73.3752 9.31413C73.3752 9.05371 73.3518 8.66429 73.3074 8.14588C73.2629 7.62747 73.2372 7.24049 73.2372 6.98737C73.2372 6.73425 73.3331 6.58335 73.5274 6.58335C73.7614 6.58335 74.2294 6.57849 74.9314 6.56875L75.4463 6.55658H75.4018C75.3807 6.55658 75.3761 6.55658 75.3831 6.55658H75.7973C76.1093 6.54685 76.5773 6.55577 77.2014 6.58335C77.3839 6.60769 77.4775 6.74399 77.4775 6.98737C77.4775 7.31188 77.4564 7.81569 77.4143 8.49879C77.3722 9.18189 77.3511 9.68488 77.3511 10.0078C77.3266 10.5721 77.3604 11.1376 77.4518 11.6944C77.6132 12.19 77.8063 12.6738 78.0298 13.1426C78.4073 13.9279 78.671 14.3205 78.8207 14.3205C78.9705 14.3205 79.2513 13.9238 79.6632 13.1304C80.0563 12.371 80.2662 11.8745 80.2927 11.6409C80.3254 11.3164 80.3418 9.77493 80.3418 7.01658C80.3418 6.71235 80.4261 6.55901 80.5946 6.55901C80.9783 6.55901 81.5587 6.54603 82.3356 6.52007C83.1126 6.49411 83.6921 6.48113 84.0743 6.48113C84.1767 6.47519 84.2775 6.50939 84.3568 6.57699C84.4361 6.64458 84.4881 6.74065 84.5026 6.84621C84.5946 7.20317 84.6407 8.1832 84.6407 9.78629Z" fill="white"/>
<path d="M98.7174 12.3383C98.7174 13.0101 98.7548 14.0079 98.8297 15.332C98.9046 16.656 98.942 17.6498 98.942 18.3134C98.942 18.6615 98.7946 18.8489 98.5021 18.8756C97.463 18.9535 96.2735 18.9925 94.9334 18.9925C94.7742 18.9925 94.6666 18.7491 94.6128 18.2404C94.5589 17.7317 94.4934 17.4859 94.4185 17.4762C94.3207 17.5365 94.2316 17.611 94.1541 17.6977C93.218 18.6842 92.2126 19.1766 91.1377 19.175C90.3574 19.1882 89.5849 19.0134 88.8805 18.6642C88.1761 18.315 87.559 17.8009 87.0775 17.1622C86.0606 15.9029 85.5198 14.3013 85.5564 12.6572C85.5564 10.6419 86.0798 9.01938 87.1267 7.78947C88.2187 6.51576 89.7102 5.87891 91.601 5.87891C92.9177 5.87891 93.9567 6.35837 94.7181 7.31731C94.7532 7.36112 94.7813 7.38302 94.807 7.38302C94.8819 7.38302 94.9685 7.17128 95.0644 6.75022C95.1604 6.32917 95.2774 6.11499 95.4108 6.11499C96.0074 6.15694 96.5998 6.24892 97.1822 6.39001C97.7841 6.50656 98.3801 6.6544 98.9678 6.83297C99.0941 6.88652 99.1573 6.9571 99.1573 7.04228C99.1492 7.13469 99.1359 7.22652 99.1175 7.31731C98.8438 8.97566 98.7099 10.6557 98.7174 12.3383ZM94.6689 12.4162C94.6795 12.0793 94.6256 11.7436 94.5103 11.4285C94.395 11.1135 94.2206 10.8254 93.9973 10.5811C93.5229 10.1148 92.8949 9.85508 92.2422 9.85508C91.5895 9.85508 90.9615 10.1148 90.4871 10.5811C90.2668 10.8265 90.0953 11.1147 89.9825 11.4292C89.8696 11.7437 89.8177 12.0783 89.8295 12.4138C89.8241 12.7502 89.8834 13.0843 90.004 13.3966C90.1246 13.7088 90.3039 13.9928 90.5316 14.2319C90.7497 14.4759 91.0147 14.6696 91.3094 14.8004C91.604 14.9312 91.9218 14.9962 92.2422 14.9912C92.5659 15.0018 92.8882 14.9423 93.1887 14.8167C93.4892 14.691 93.7614 14.5018 93.988 14.2611C94.2146 14.0162 94.3916 13.7266 94.5086 13.4093C94.6256 13.0919 94.6801 12.7534 94.6689 12.4138V12.4162Z" fill="white"/>
<path d="M105.819 10.9854C105.819 13.3625 105.827 15.1879 105.843 16.4616C105.843 16.6636 105.857 17.0068 105.88 17.496C105.906 17.9389 105.917 18.2845 105.917 18.5279C105.917 18.7105 105.815 18.82 105.604 18.8541C104.929 18.9422 104.248 18.9772 103.568 18.9587C102.925 18.9837 102.281 18.9487 101.644 18.8541C101.561 18.8405 101.485 18.798 101.428 18.7334C101.371 18.6689 101.337 18.5861 101.331 18.4987V17.9389C101.331 17.165 101.339 16.004 101.357 14.4561C101.374 12.9082 101.382 11.7513 101.38 10.9854C101.38 7.32495 101.385 5.65614 101.394 5.97903C101.385 4.31404 101.28 2.65112 101.078 0.999388C101.064 0.925555 101.057 0.850659 101.055 0.775475C101.055 0.583201 101.162 0.488281 101.38 0.488281H105.868C106.077 0.488281 106.175 0.580767 106.156 0.763306L106.144 1.00669C105.926 4.76454 105.818 8.0908 105.819 10.9854Z" fill="white"/>
<path d="M122.076 10.3364C122.076 12.2641 121.167 13.7284 119.35 14.7295C119.181 14.8172 119.097 14.9096 119.097 15.0046C119.097 15.1522 119.487 15.7688 120.267 16.8543C121.047 17.9398 121.437 18.5077 121.437 18.558C121.437 18.7932 120.327 18.9109 118.107 18.9109C117.253 18.9109 116.757 18.7965 116.624 18.5701C116.288 17.9893 115.764 17.1536 115.051 16.0633C115.009 16.013 114.255 15.9521 112.788 15.8807C112.788 16.1509 112.788 16.5817 112.8 17.1755C112.812 17.7694 112.814 18.2075 112.814 18.4947C112.82 18.5486 112.816 18.6034 112.801 18.6553C112.785 18.7073 112.76 18.7553 112.725 18.796C112.691 18.8368 112.648 18.8694 112.6 18.8918C112.553 18.9141 112.501 18.9256 112.449 18.9255C112.297 18.9425 111.637 18.9523 110.462 18.9523C109.871 18.9699 109.28 18.9521 108.691 18.8987C108.457 18.8573 108.351 18.6772 108.351 18.3633V10.3632C108.351 9.29233 108.314 7.68924 108.239 5.55394C108.164 3.41865 108.123 1.81881 108.117 0.754404C108.117 0.545094 108.232 0.438004 108.457 0.428269C108.901 0.428269 109.568 0.428269 110.455 0.401497C110.689 0.38446 111.096 0.333349 111.674 0.245731C112.074 0.178256 112.477 0.139224 112.882 0.128906C113.015 0.128906 113.083 0.255466 113.083 0.506152C113.083 0.837155 113.057 1.28742 113.008 1.8545C112.95 2.51651 112.914 2.9692 112.907 3.21259C112.834 5.08665 112.797 6.53803 112.797 7.56673C112.797 7.81012 112.828 7.93668 112.886 7.94641C112.996 7.86076 113.097 7.76372 113.188 7.65678C113.695 7.08869 114.311 6.63797 114.997 6.33396C115.682 6.02994 116.421 5.87944 117.166 5.89225C118.635 5.89225 119.799 6.2411 120.66 6.9388C121.606 7.71601 122.078 8.84856 122.076 10.3364ZM117.071 11.1956C117.071 10.1393 116.497 9.61197 115.351 9.6136C114.759 9.64014 114.189 9.84944 113.712 10.2148C113.088 10.6415 112.776 11.108 112.776 11.6142C112.776 12.3363 112.872 12.7719 113.064 12.9212C113.22 13.025 113.702 13.077 114.51 13.077C116.219 13.0721 117.072 12.445 117.071 11.1956Z" fill="white"/>
<path d="M129.058 16.0106C129.065 16.42 128.993 16.8266 128.845 17.206C128.697 17.5854 128.477 17.9297 128.197 18.2181C127.926 18.5085 127.601 18.7392 127.242 18.8968C126.883 19.0544 126.498 19.1356 126.109 19.1356C125.719 19.1356 125.334 19.0544 124.975 18.8968C124.616 18.7392 124.292 18.5085 124.02 18.2181C123.471 17.628 123.164 16.8391 123.164 16.0179C123.164 15.1968 123.471 14.4078 124.02 13.8177C124.292 13.528 124.617 13.2977 124.975 13.1405C125.334 12.9833 125.719 12.9023 126.109 12.9023C126.498 12.9023 126.883 12.9833 127.242 13.1405C127.6 13.2977 127.925 13.528 128.197 13.8177C128.475 14.1042 128.695 14.4461 128.843 14.8229C128.991 15.1997 129.064 15.6037 129.058 16.0106Z" fill="white"/>
<path d="M142.883 12.4432C142.883 14.4325 142.298 16.0453 141.128 17.2817C139.958 18.5181 138.422 19.1363 136.522 19.1363C134.678 19.1363 133.162 18.5262 131.973 17.306C130.784 16.0858 130.189 14.5176 130.188 12.6014C130.188 10.5781 130.757 8.93683 131.896 7.67773C133.035 6.41862 134.577 5.78906 136.522 5.78906C138.416 5.78906 139.95 6.40564 141.123 7.63878C142.296 8.87193 142.883 10.4734 142.883 12.4432ZM138.759 12.4432C138.767 11.7791 138.549 11.1335 138.144 10.6202C137.956 10.3675 137.714 10.1642 137.437 10.0268C137.159 9.88941 136.855 9.82173 136.548 9.82924C136.233 9.82288 135.921 9.8928 135.637 10.0335C135.353 10.1741 135.104 10.3817 134.91 10.6397C134.512 11.1481 134.303 11.788 134.32 12.4432C134.305 13.1046 134.518 13.7498 134.922 14.2613C135.115 14.5193 135.364 14.7268 135.649 14.8675C135.933 15.0082 136.245 15.0781 136.56 15.0717C136.872 15.077 137.18 15.0064 137.462 14.8657C137.743 14.725 137.988 14.5181 138.179 14.2613C138.575 13.7464 138.783 13.1023 138.766 12.4432H138.759Z" fill="white"/>
<path d="M152.738 10.7299C152.738 11.0682 152.557 11.2385 152.197 11.2385C152.036 11.2385 151.804 11.2385 151.495 11.2069C151.186 11.1753 150.959 11.1728 150.809 11.1728C150.112 11.1728 149.638 11.2864 149.389 11.5136C149.139 11.7407 149.015 12.2023 149.017 12.8984C149.017 13.2732 149.017 13.8427 149.036 14.6021C149.054 15.3615 149.054 15.9334 149.054 16.3058C149.054 16.5492 149.071 16.9337 149.103 17.4351C149.136 17.9365 149.155 18.3088 149.155 18.5547C149.155 18.7615 149.017 18.8808 148.741 18.9051C148.338 18.9408 147.722 18.9587 146.892 18.9587C146.096 18.9587 145.46 18.9327 144.982 18.8808C144.706 18.8451 144.568 18.7015 144.568 18.45C144.568 17.7507 144.572 16.7066 144.58 15.3177C144.588 13.9287 144.588 12.8854 144.58 12.1877C144.58 10.1384 144.4 8.45178 144.039 7.12777C144.025 7.0639 144.017 6.99864 144.016 6.93306C144.013 6.8735 144.03 6.81476 144.064 6.76683C144.098 6.71891 144.148 6.68476 144.203 6.67021C144.671 6.6191 145.338 6.52174 146.227 6.38301C147.552 6.11286 148.233 5.97656 148.275 5.97656C148.427 5.97656 148.523 6.25159 148.565 6.80164C148.607 7.35168 148.682 7.62427 148.799 7.62427C148.681 7.62427 149.024 7.39549 149.829 6.93793C150.536 6.50843 151.336 6.2723 152.155 6.25159C152.623 6.25159 152.857 6.35624 152.857 6.56555C152.85 6.92451 152.824 7.2828 152.78 7.63888C152.731 8.12565 152.7 8.49316 152.693 8.70977C152.686 8.92638 152.693 9.29876 152.705 9.71738C152.728 10.2212 152.738 10.5644 152.738 10.7299Z" fill="white"/>
<path d="M166.647 15.4757C166.647 17.9614 166.144 19.7463 165.138 20.8301C164.099 21.9383 162.373 22.4916 159.961 22.49C158.994 22.4598 158.031 22.3417 157.083 22.1371C155.532 21.8402 154.757 21.4913 154.757 21.0906C154.757 20.9283 154.937 20.0748 155.297 18.5301C155.356 18.2868 155.447 18.1626 155.573 18.1626C155.622 18.1741 155.668 18.1921 155.712 18.2162C157.003 18.8782 158.198 19.2092 159.294 19.2092C159.92 19.2033 160.536 19.0432 161.091 18.7419C161.812 18.3671 162.173 17.8949 162.173 17.3303V16.4541C161.319 17.2881 160.222 17.7059 158.88 17.7075C158.148 17.7287 157.42 17.5816 156.748 17.2766C156.077 16.9716 155.478 16.5162 154.995 15.943C154.009 14.795 153.483 13.2979 153.526 11.7592C153.526 10.0944 153.994 8.71527 154.93 7.62166C155.911 6.48587 157.194 5.91797 158.777 5.91797C160.041 5.91797 161.009 6.38851 161.681 7.3296C161.815 7.52187 161.915 7.61679 161.957 7.61679C161.999 7.61679 162.07 7.46103 162.07 7.14706C162.07 6.45098 162.145 6.10051 162.304 6.10051C162.463 6.10051 163.162 6.17352 164.478 6.31712C165.793 6.46072 166.476 6.54103 166.525 6.5605C166.593 6.58341 166.651 6.62963 166.69 6.69157C166.73 6.7535 166.747 6.82746 166.741 6.90124C166.741 7.50321 166.722 8.40049 166.684 9.59307C166.647 10.7881 166.626 11.6862 166.626 12.2873C166.626 12.6459 166.631 13.1814 166.64 13.8937C166.642 14.5825 166.647 15.1203 166.647 15.4757ZM162.381 11.8565C162.389 11.2442 162.172 10.6518 161.772 10.2015C161.583 9.97476 161.348 9.79386 161.084 9.67151C160.82 9.54917 160.533 9.48834 160.244 9.49329C159.954 9.48901 159.666 9.55236 159.402 9.67869C159.138 9.80503 158.904 9.99115 158.719 10.2234C158.32 10.6781 158.102 11.2729 158.108 11.8882C158.099 12.5011 158.323 13.093 158.73 13.5359C158.92 13.7576 159.154 13.9343 159.415 14.054C159.676 14.1737 159.959 14.2335 160.244 14.2295C160.533 14.2356 160.82 14.1755 161.084 14.0536C161.348 13.9316 161.583 13.7507 161.772 13.5237C162.172 13.0691 162.39 12.4727 162.381 11.8565Z" fill="white"/>
<path d="M125.365 28.3586C125.366 28.3725 125.364 28.3866 125.36 28.4C125.356 28.4133 125.35 28.4257 125.341 28.4364C125.332 28.447 125.322 28.4558 125.31 28.4621C125.298 28.4683 125.284 28.4721 125.271 28.473C125.271 28.5776 125.271 28.5776 125.177 28.5874C125.129 28.6524 125.059 28.6966 124.981 28.7115C124.932 28.7765 124.862 28.82 124.784 28.8332C124.64 28.8421 124.501 28.8918 124.382 28.9768C124.17 28.9795 123.962 29.0346 123.776 29.1374C123.261 29.1836 122.861 29.3272 122.449 29.3638C121.569 29.5308 120.68 29.6478 119.788 29.7142C118.658 29.8164 117.64 30.0136 116.715 30.0988C115.752 30.0969 114.79 30.1497 113.832 30.257C113.689 30.2865 113.539 30.2624 113.411 30.1888L112.487 30.274C112.505 30.4833 112.225 30.8265 110.991 30.9385L105.052 31.6905C103.512 31.8317 102.169 31.8487 100.526 31.9996C99.1995 32.226 97.0512 32.5278 95.8203 32.6397C94.9896 32.6105 94.0746 32.8003 93.2462 32.8831C92.9396 32.9123 92.5207 32.8442 92.1089 32.8831C91.1845 32.9658 90.2695 33.1557 89.2422 33.2506C89.2422 33.3553 88.952 33.494 88.3436 33.6498C86.9161 33.8931 85.5799 34.0075 84.0401 34.1365L81.7818 34.3434C81.1962 34.2742 80.6059 34.2571 80.0174 34.2923C78.3793 34.5357 76.9541 34.7791 75.3114 34.9348L67.3011 35.665C67.5234 35.8572 64.6661 36.327 63.9477 36.3951L56.2463 37.0985C54.9101 37.2202 53.4732 37.3419 52.034 37.3784C50.625 37.5107 49.2084 37.5343 47.796 37.449C47.1289 37.419 46.4648 37.3377 45.8093 37.2056C45.0895 37.1734 44.3789 37.0248 43.7031 36.7651C43.3632 36.6625 43.0376 36.5144 42.7343 36.3245C42.4009 36.168 42.1003 35.9447 41.8498 35.6674C41.8498 35.5628 41.7304 35.4678 41.7211 35.3632L41.6953 35.0492L41.9597 34.4967C42.2499 34.2533 42.5588 34.2314 42.856 34.0976C43.062 34.0781 43.1649 34.0708 43.1743 34.173C43.4305 34.0569 43.7068 33.9964 43.9863 33.9954H44.0893C44.7432 33.9587 45.393 33.8643 46.0316 33.713C46.5811 33.6369 47.1241 33.5164 47.6556 33.3528L51.0465 33.0437C53.4077 32.8271 55.8625 32.4985 58.329 32.2722C60.6808 31.9534 63.035 31.6321 65.4056 31.5201C66.5335 31.4179 67.5702 31.4301 68.7005 31.3254C69.5219 31.25 70.2497 31.2889 70.9681 31.2232L72.6062 31.0747C74.2443 30.8314 75.866 30.4614 77.6117 30.3008L83.2608 29.7848L88.8233 29.4879C90.4614 29.3394 92.0995 29.1885 93.761 29.1423C94.3788 29.0863 95.1066 29.1252 95.722 29.0693C104.776 28.4535 113.839 27.9424 122.013 27.9351C122.357 27.8811 122.707 27.8852 123.05 27.9473L123.769 27.8815C123.769 27.7769 123.752 27.6722 123.956 27.6528C124.07 27.5579 124.212 27.5079 124.358 27.5116L124.77 27.4727C124.873 27.4727 124.873 27.4727 124.983 27.5603L125.189 27.5408C125.189 27.6455 125.189 27.6455 125.301 27.6357C125.302 27.6496 125.306 27.6632 125.312 27.6756C125.318 27.688 125.326 27.699 125.337 27.7078C125.347 27.7167 125.359 27.7233 125.372 27.7273C125.385 27.7312 125.398 27.7323 125.411 27.7306L125.456 28.2564C125.456 28.2822 125.446 28.3072 125.43 28.3262C125.413 28.3451 125.389 28.3567 125.365 28.3586Z" fill="white"/>
<path d="M110.058 49.1626C110.071 49.5879 110.004 50.0117 109.859 50.4098C109.714 50.8078 109.496 51.1722 109.215 51.4821C108.577 52.1879 107.456 52.54 105.852 52.5384H105.326H104.806C103.008 52.5384 101.937 52.5002 101.596 52.424C101.455 52.3948 101.383 52.3169 101.383 52.1806C101.383 51.6403 101.413 50.8176 101.474 49.7175C101.535 48.6174 101.565 47.7924 101.565 47.2448C101.565 46.659 101.536 45.554 101.479 43.9299C101.465 43.5137 101.437 42.8906 101.399 42.0582V41.9511C101.399 41.857 101.477 41.7986 101.633 41.7759C101.789 41.7532 102.353 41.7435 103.325 41.7467C104.881 41.7467 105.789 41.7467 106.054 41.7613C107.252 41.8075 108.139 42.0047 108.707 42.3698C109.463 42.8565 109.841 43.6678 109.842 44.8036C109.832 45.1388 109.741 45.4661 109.578 45.7552C109.439 46.0121 109.272 46.2521 109.082 46.4708C108.902 46.6777 108.81 46.775 108.81 46.758C108.81 46.7953 108.874 46.8513 109 46.9259C109.361 47.153 109.643 47.4941 109.805 47.8995C109.977 48.2963 110.063 48.7274 110.058 49.1626ZM106.913 44.8791C106.921 44.6809 106.863 44.4858 106.748 44.3275C106.633 44.1693 106.469 44.0579 106.283 44.0126C105.904 43.9205 105.516 43.8821 105.127 43.8982C104.6 43.8982 104.338 43.9396 104.338 44.0199C104.338 44.1002 104.338 44.2633 104.313 44.458C104.287 44.6527 104.287 44.7987 104.287 44.8961C104.287 45.4023 104.329 45.6871 104.411 45.7479C104.493 45.8088 104.774 45.8161 105.347 45.8161C106.391 45.8226 106.913 45.5135 106.913 44.8888V44.8791ZM107.133 49.131C107.148 48.9357 107.103 48.7404 107.004 48.5736C106.905 48.4068 106.757 48.2772 106.583 48.2037C106.215 48.0821 105.828 48.031 105.443 48.0528C104.813 48.0528 104.472 48.0771 104.418 48.1234C104.364 48.1696 104.338 48.4836 104.338 49.0555C104.338 49.6275 104.369 49.9853 104.432 50.0485C104.495 50.1118 104.849 50.1435 105.485 50.1435C105.86 50.1633 106.235 50.1198 106.597 50.0145C106.765 49.9494 106.909 49.8288 107.006 49.6711C107.102 49.5134 107.147 49.3272 107.133 49.1407V49.131Z" fill="white"/>
<path d="M118.115 47.0368C118.139 47.6362 118.11 48.2367 118.028 48.8306C117.955 49.0837 117.42 50.0013 116.425 51.5833C116.269 51.8348 115.867 52.4108 115.22 53.3113C114.504 54.3043 114.097 54.8292 113.998 54.886C113.9 54.9428 113.152 54.9809 111.754 55.0004C111.608 55.0135 111.461 54.9867 111.328 54.9225C111.265 54.7156 111.185 54.4698 111.094 54.1923L110.86 53.652C110.777 53.4881 110.721 53.3114 110.692 53.1287C110.692 53.0314 110.734 52.9827 110.816 52.9827C112.173 52.9827 112.851 52.6582 112.849 52.0092C112.55 51.4832 112.218 50.9783 111.855 50.4978C111.167 49.5242 110.789 48.9052 110.722 48.6407C110.664 48.1182 110.644 47.5917 110.664 47.066C110.664 46.8843 110.668 46.6093 110.678 46.241C110.687 45.8726 110.692 45.5976 110.692 45.4159C110.692 45.2845 110.774 45.2188 110.926 45.2188C111.177 45.2188 111.554 45.2261 112.056 45.2407C112.561 45.2553 112.938 45.265 113.186 45.265C113.289 45.265 113.341 45.3461 113.341 45.5084C113.341 45.652 113.341 45.8662 113.317 46.1509C113.294 46.4357 113.296 46.6523 113.296 46.7959C113.296 47.4336 113.306 47.8668 113.324 48.0956C113.414 48.4494 113.563 48.784 113.764 49.0837C114.057 49.5851 114.27 49.8382 114.401 49.8382C114.532 49.8382 114.703 49.5948 114.972 49.091C115.149 48.7968 115.284 48.4769 115.372 48.1418C115.424 47.6569 115.449 47.1693 115.447 46.6815C115.447 46.5452 115.433 46.3359 115.409 46.0584C115.386 45.781 115.372 45.5717 115.372 45.4256C115.372 45.3307 115.423 45.282 115.526 45.282C115.774 45.282 116.146 45.282 116.643 45.2504C117.139 45.2188 117.508 45.2212 117.756 45.2212C117.815 45.2186 117.872 45.2368 117.919 45.2726C117.965 45.3085 117.999 45.3599 118.014 45.4183C118.104 45.9524 118.138 46.4951 118.115 47.0368Z" fill="white"/>
<path d="M132.946 47.1353C132.978 48.3891 132.605 49.6177 131.886 50.6254C131.167 51.6197 130.118 52.3006 128.943 52.536C129.209 53.0824 129.58 53.5662 130.033 53.9573C130.077 53.9938 130.099 54.0279 130.099 54.0571C130.099 54.2599 129.499 54.3614 128.299 54.3614C127.751 54.3896 127.201 54.3536 126.661 54.2543C126.604 54.2328 126.554 54.1951 126.517 54.1457C126.48 54.0962 126.457 54.0368 126.45 53.9744C126.382 53.491 126.362 53.0016 126.392 52.5141C125.246 52.2391 124.235 51.5413 123.546 50.55C122.811 49.4467 122.455 48.1181 122.534 46.7784C122.614 45.4387 123.126 44.1661 123.986 43.1657C124.472 42.6437 125.054 42.2286 125.697 41.9452C126.34 41.6617 127.032 41.5156 127.73 41.5156C128.429 41.5156 129.12 41.6617 129.764 41.9452C130.407 42.2286 130.989 42.6437 131.475 43.1657C132.45 44.2347 132.979 45.6618 132.946 47.1353ZM130.173 47.1207C130.195 46.4103 129.964 45.7168 129.523 45.1736C129.294 44.9154 129.016 44.7094 128.706 44.5685C128.397 44.4276 128.062 44.3548 127.724 44.3548C127.387 44.3548 127.052 44.4276 126.743 44.5685C126.433 44.7094 126.155 44.9154 125.926 45.1736C125.515 45.7437 125.292 46.4363 125.29 47.1487C125.287 47.861 125.505 48.5553 125.912 49.1286C126.148 49.381 126.431 49.5812 126.744 49.7171C127.056 49.853 127.392 49.9219 127.731 49.9197C128.069 49.9174 128.404 49.844 128.715 49.7039C129.026 49.5638 129.306 49.3598 129.539 49.1042C129.979 48.5471 130.205 47.8406 130.173 47.1207Z" fill="white"/>
<path d="M141.254 52.2374C141.258 52.2678 141.255 52.2987 141.247 52.328C141.238 52.3573 141.223 52.3843 141.204 52.4073C141.184 52.4303 141.16 52.4487 141.134 52.4614C141.107 52.4741 141.078 52.4807 141.048 52.4808C140.913 52.5003 140.557 52.5124 139.981 52.5124C139.601 52.5236 139.22 52.5082 138.842 52.4662C138.773 52.4548 138.711 52.4157 138.67 52.3574C138.629 52.2991 138.611 52.2262 138.622 52.1547C138.622 51.9161 138.629 51.5559 138.643 51.074C138.657 50.5873 138.666 50.2295 138.666 49.9861C138.666 49.7987 138.666 49.5188 138.65 49.1464C138.633 48.7741 138.636 48.4942 138.636 48.3043C138.636 47.6115 138.345 47.2643 137.765 47.2626C137.524 47.2819 137.294 47.3722 137.1 47.5231C136.827 47.7153 136.691 47.9052 136.691 48.0926V52.1985C136.696 52.2335 136.694 52.2694 136.685 52.3036C136.676 52.3378 136.659 52.3694 136.637 52.3964C136.615 52.4233 136.587 52.4448 136.556 52.4593C136.525 52.4739 136.491 52.4813 136.457 52.4808C136.286 52.5003 135.937 52.5124 135.411 52.5124C135.04 52.5217 134.669 52.5063 134.299 52.4662C134.147 52.4394 134.065 52.3567 134.065 52.2228C134.065 51.8269 134.065 51.2306 134.065 50.4339C134.065 49.6373 134.065 49.0393 134.065 48.6402C134.093 47.6403 133.998 46.6409 133.782 45.666C133.772 45.6288 133.766 45.5904 133.766 45.5516C133.764 45.5151 133.774 45.479 133.794 45.4488C133.814 45.4185 133.843 45.3957 133.876 45.3837C134.182 45.3496 134.592 45.2937 135.104 45.2182C135.884 45.056 136.321 44.9748 136.415 44.9748C136.466 44.9748 136.508 45.1452 136.539 45.4884C136.569 45.8315 136.609 46.0019 136.663 46.0019C136.608 46.0019 136.87 45.825 137.449 45.4713C137.902 45.1616 138.425 44.9796 138.966 44.9432C139.516 44.9225 140.059 45.0826 140.517 45.4007C140.742 45.5636 140.925 45.7826 141.047 46.0377C141.17 46.2929 141.229 46.576 141.219 46.8611V49.2949C141.219 49.6235 141.219 50.1175 141.219 50.7722C141.219 51.4269 141.254 51.9088 141.254 52.2374Z" fill="white"/>
<path d="M146.751 46.3065C146.737 46.3853 146.698 46.4572 146.641 46.5109C146.507 46.4764 146.369 46.4584 146.231 46.4574C145.977 46.448 145.725 46.5165 145.508 46.6545C145.399 46.7199 145.309 46.8144 145.247 46.9283C145.186 47.0422 145.155 47.1712 145.157 47.3019C145.2 47.5661 145.332 47.8058 145.529 47.9785C145.781 48.2381 146.016 48.5154 146.231 48.8085C146.473 49.1728 146.602 49.6048 146.603 50.0473C146.599 50.328 146.55 50.606 146.458 50.8699C146.378 51.1377 146.231 51.3786 146.032 51.5685C145.653 51.9064 145.227 52.1836 144.769 52.3911C144.316 52.6067 143.825 52.7251 143.327 52.7391C143.231 52.7391 143.011 52.4641 142.674 51.9141C142.337 51.364 142.164 51.0281 142.164 50.9064C142.164 50.8626 142.192 50.8334 142.246 50.8237L143.276 50.6266C143.706 50.483 143.919 50.2517 143.919 49.9256C143.886 49.6295 143.755 49.3547 143.547 49.1492C143.102 48.6381 142.868 48.3671 142.845 48.3363C142.607 48.0016 142.476 47.5968 142.473 47.1802C142.473 46.4209 142.843 45.7719 143.585 45.2332C144.207 44.7751 144.95 44.5285 145.712 44.5273C145.789 44.5273 145.983 44.7999 146.29 45.3427C146.484 45.6411 146.639 45.9652 146.751 46.3065Z" fill="white"/>
<path d="M152.646 47.4598L152.203 47.3381C151.975 47.2665 151.739 47.2256 151.501 47.2164C151.311 47.2071 151.12 47.2384 150.941 47.3083C150.763 47.3782 150.6 47.4852 150.462 47.6228C150.331 47.7671 150.229 47.9373 150.163 48.1234C150.097 48.3095 150.067 48.5076 150.076 48.7059C150.066 48.9103 150.098 49.1145 150.171 49.3045C150.244 49.4945 150.356 49.6656 150.5 49.806C150.806 50.0805 151.201 50.2232 151.604 50.2052C151.854 50.1964 152.099 50.1377 152.327 50.0324C152.457 49.9829 152.585 49.926 152.709 49.862C152.791 49.862 152.898 50.1833 153.029 50.8355C153.114 51.2207 153.171 51.612 153.198 52.0062C153.198 52.1985 152.896 52.364 152.29 52.493C151.919 52.587 151.539 52.6409 151.157 52.6536C150.664 52.6693 150.173 52.5771 149.715 52.383C149.258 52.1889 148.845 51.8972 148.503 51.5267C147.833 50.7615 147.461 49.7633 147.461 48.7278C147.461 47.6923 147.833 46.6941 148.503 45.9289C148.843 45.5546 149.254 45.2589 149.71 45.0614C150.167 44.8638 150.658 44.7688 151.153 44.7826C151.821 44.7671 152.482 44.935 153.069 45.2693C153.195 45.3407 153.259 45.4089 153.259 45.4738C153.204 45.7777 153.13 46.0777 153.039 46.3719C152.903 46.883 152.814 47.1921 152.772 47.2991C152.732 47.4014 152.688 47.4598 152.646 47.4598Z" fill="white"/>
<path d="M161.309 52.2374C161.312 52.2678 161.309 52.2985 161.3 52.3276C161.292 52.3567 161.277 52.3836 161.258 52.4065C161.238 52.4294 161.215 52.4479 161.188 52.4606C161.161 52.4734 161.132 52.4803 161.103 52.4808C160.967 52.5003 160.612 52.5124 160.036 52.5124C159.655 52.5236 159.273 52.5081 158.894 52.4662C158.826 52.4542 158.765 52.4149 158.724 52.3567C158.683 52.2984 158.666 52.2259 158.676 52.1547C158.676 51.9161 158.683 51.5559 158.697 51.074C158.711 50.5921 158.718 50.2295 158.718 49.9861C158.718 49.7995 158.714 49.5196 158.704 49.1464C158.704 48.7741 158.69 48.4942 158.69 48.3043C158.69 47.6115 158.4 47.2643 157.82 47.2626C157.579 47.2819 157.348 47.3722 157.155 47.5231C156.881 47.7153 156.746 47.9052 156.746 48.0926V52.1985C156.751 52.2335 156.749 52.2694 156.74 52.3036C156.731 52.3378 156.714 52.3694 156.692 52.3963C156.67 52.4233 156.642 52.4448 156.611 52.4593C156.58 52.4739 156.546 52.4813 156.512 52.4808C156.341 52.5003 155.992 52.5124 155.466 52.5124C155.094 52.5217 154.723 52.5063 154.354 52.4662C154.202 52.4394 154.12 52.3567 154.12 52.2228C154.12 51.8269 154.12 51.2306 154.12 50.4339C154.12 49.6373 154.12 49.0393 154.12 48.6402C154.148 47.6402 154.052 46.6405 153.834 45.666C153.826 45.6285 153.821 45.5902 153.82 45.5516C153.819 45.5151 153.829 45.479 153.849 45.4488C153.869 45.4185 153.897 45.3957 153.93 45.3837C154.237 45.3496 154.647 45.2937 155.159 45.2182C155.934 45.06 156.371 44.9748 156.467 44.9748C156.521 44.9748 156.563 45.1452 156.591 45.4884C156.619 45.8315 156.664 46.0019 156.718 46.0019C156.664 46.0019 156.927 45.825 157.504 45.4713C157.957 45.1613 158.479 44.9793 159.02 44.9432C159.57 44.9225 160.112 45.0826 160.569 45.4007C160.795 45.5636 160.977 45.7826 161.1 46.0377C161.222 46.2929 161.281 46.576 161.271 46.8611V49.2949C161.271 49.6235 161.271 50.1175 161.271 50.7722C161.271 51.4269 161.309 51.9088 161.309 52.2374Z" fill="white"/>
<path d="M167.418 50.2292C167.412 50.4612 167.394 50.6927 167.364 50.9228C167.338 51.1465 167.323 51.3716 167.32 51.597C167.33 51.692 167.315 51.7881 167.276 51.8744C167.208 51.947 167.129 52.0063 167.042 52.0497C166.401 52.4133 165.681 52.5994 164.952 52.59C163.548 52.59 162.846 52.0294 162.846 50.9082C162.846 50.5748 162.86 50.071 162.883 49.3992C162.907 48.7275 162.921 48.2237 162.921 47.8902C162.921 47.6663 162.797 47.5544 162.546 47.5544H162.453H162.357C162.172 47.5544 162.078 47.4862 162.078 47.3499C162.078 47.2696 162.078 47.1455 162.097 46.9776C162.116 46.8096 162.116 46.6855 162.116 46.6052C162.116 46.5249 162.116 46.335 162.097 46.1184C162.078 45.9018 162.078 45.7387 162.078 45.6316C162.078 45.5245 162.235 45.4734 162.546 45.4637C162.722 45.4637 162.818 45.4077 162.832 45.3128C162.866 45.01 162.876 44.7047 162.862 44.4001C162.841 43.7454 162.832 43.4266 162.832 43.4631C162.832 42.8765 162.885 42.582 162.993 42.582C163.184 42.5906 163.373 42.6208 163.557 42.6721C163.747 42.7214 163.939 42.7596 164.133 42.7865C164.383 42.823 164.758 42.8692 165.261 42.9301C165.382 42.9422 165.443 42.9836 165.443 43.0615C165.443 43.2635 165.427 43.5702 165.396 43.9815C165.366 44.3928 165.347 44.7116 165.347 44.9088C165.347 45.1522 165.418 45.2812 165.56 45.2812C165.703 45.2812 165.988 45.2812 166.335 45.2593C166.681 45.2374 166.941 45.2349 167.116 45.2349C167.224 45.2349 167.278 45.2739 167.278 45.3493C167.278 45.4661 167.266 45.6414 167.243 45.875C167.222 46.0486 167.209 46.2233 167.205 46.3983C167.205 46.52 167.205 46.6977 167.205 46.9313C167.205 47.165 167.205 47.3426 167.205 47.4643C167.205 47.5714 167.135 47.625 166.995 47.625H166.503L166.014 47.6128H165.448C165.375 47.6128 165.34 47.7247 165.34 47.9487V48.489C165.34 48.7324 165.34 48.9125 165.34 49.0268C165.317 49.3286 165.365 49.6317 165.478 49.9103C165.609 50.1294 165.869 50.2365 166.253 50.2365C166.43 50.2278 166.606 50.1984 166.777 50.1489C166.93 50.1033 167.087 50.0739 167.245 50.0612C167.361 50.0612 167.418 50.1172 167.418 50.2292Z" fill="white"/>
</svg>
