<svg width="9920" height="60" viewBox="0 0 9920 60" fill="none" xmlns="http://www.w3.org/2000/svg">
<path d="M0 13.1297C124.969 -4.29857 195.033 -4.455 320 13.1315C451.357 26.5649 520.773 25.1941 640 13.1309V49.9115C518.72 60.928 449.487 63.4173 320 49.9115C195.032 34.3879 124.967 33.7134 0 49.9115V13.1297Z" fill="#72BDA3"/>
<path d="M640 13.1297C764.969 -4.29857 835.033 -4.455 960 13.1315C1091.36 26.5649 1160.77 25.1941 1280 13.1309V49.9115C1158.72 60.928 1089.49 63.4173 960 49.9115C835.032 34.3879 764.967 33.7134 640 49.9115V13.1297Z" fill="#72BDA3"/>
<path d="M1280 13.1297C1404.97 -4.29857 1475.03 -4.455 1600 13.1315C1731.36 26.5649 1800.77 25.1941 1920 13.1309V49.9115C1798.72 60.928 1729.49 63.4173 1600 49.9115C1475.03 34.3879 1404.97 33.7134 1280 49.9115V13.1297Z" fill="#72BDA3"/>
<path d="M1920 13.1297C2044.97 -4.29857 2115.03 -4.455 2240 13.1315C2371.36 26.5649 2440.77 25.1941 2560 13.1309V49.9115C2438.72 60.928 2369.49 63.4173 2240 49.9115C2115.03 34.3879 2044.97 33.7134 1920 49.9115V13.1297Z" fill="#72BDA3"/>
<path d="M2560 13.1297C2684.97 -4.29857 2755.03 -4.455 2880 13.1315C3011.36 26.5649 3080.77 25.1941 3200 13.1309V49.9115C3078.72 60.928 3009.49 63.4173 2880 49.9115C2755.03 34.3879 2684.97 33.7134 2560 49.9115V13.1297Z" fill="#72BDA3"/>
<path d="M3200 13.1297C3324.97 -4.29857 3395.03 -4.455 3520 13.1315C3651.36 26.5649 3720.77 25.1941 3840 13.1309V49.9115C3718.72 60.928 3649.49 63.4173 3520 49.9115C3395.03 34.3879 3324.97 33.7134 3200 49.9115V13.1297Z" fill="#72BDA3"/>
<path d="M3840 13.1297C3964.97 -4.29857 4035.03 -4.455 4160 13.1315C4291.36 26.5649 4360.77 25.1941 4480 13.1309V49.9115C4358.72 60.928 4289.49 63.4173 4160 49.9115C4035.03 34.3879 3964.97 33.7134 3840 49.9115V13.1297Z" fill="#72BDA3"/>
<path d="M4480 13.1297C4604.97 -4.29857 4675.03 -4.455 4800 13.1315C4931.36 26.5649 5000.77 25.1941 5120 13.1309V49.9115C4998.72 60.928 4929.49 63.4173 4800 49.9115C4675.03 34.3879 4604.97 33.7134 4480 49.9115V13.1297Z" fill="#72BDA3"/>
<path d="M5120 13.1297C5244.97 -4.29857 5315.03 -4.455 5440 13.1315C5571.36 26.5649 5640.77 25.1941 5760 13.1309V49.9115C5638.72 60.928 5569.49 63.4173 5440 49.9115C5315.03 34.3879 5244.97 33.7134 5120 49.9115V13.1297Z" fill="#72BDA3"/>
<path d="M5760 13.1297C5884.97 -4.29857 5955.03 -4.455 6080 13.1315C6211.36 26.5649 6280.77 25.1941 6400 13.1309V49.9115C6278.72 60.928 6209.49 63.4173 6080 49.9115C5955.03 34.3879 5884.97 33.7134 5760 49.9115V13.1297Z" fill="#72BDA3"/>
<path d="M6400 13.1297C6524.97 -4.29857 6595.03 -4.455 6720 13.1315C6851.36 26.5649 6920.77 25.1941 7040 13.1309V49.9115C6918.72 60.928 6849.49 63.4173 6720 49.9115C6595.03 34.3879 6524.97 33.7134 6400 49.9115V13.1297Z" fill="#72BDA3"/>
<path d="M7040 13.1297C7164.97 -4.29857 7235.03 -4.455 7360 13.1315C7491.36 26.5649 7560.77 25.1941 7680 13.1309V49.9115C7558.72 60.928 7489.49 63.4173 7360 49.9115C7235.03 34.3879 7164.97 33.7134 7040 49.9115V13.1297Z" fill="#72BDA3"/>
<path d="M7680 13.1297C7804.97 -4.29857 7875.03 -4.455 8000 13.1315C8131.36 26.5649 8200.77 25.1941 8320 13.1309V49.9115C8198.72 60.928 8129.49 63.4173 8000 49.9115C7875.03 34.3879 7804.97 33.7134 7680 49.9115V13.1297Z" fill="#72BDA3"/>
<path d="M8320 13.1297C8444.97 -4.29857 8515.03 -4.455 8640 13.1315C8771.36 26.5649 8840.77 25.1941 8960 13.1309V49.9115C8838.72 60.928 8769.49 63.4173 8640 49.9115C8515.03 34.3879 8444.97 33.7134 8320 49.9115V13.1297Z" fill="#72BDA3"/>
<path d="M8960 13.1297C9084.97 -4.29857 9155.03 -4.455 9280 13.1315C9411.36 26.5649 9480.77 25.1941 9600 13.1309V49.9115C9478.72 60.928 9409.49 63.4173 9280 49.9115C9155.03 34.3879 9084.97 33.7134 8960 49.9115V13.1297Z" fill="#72BDA3"/>
<path d="M9600 49.9115V13.1297C9724.97 -4.29857 9795.03 -4.455 9920 13.1315V49.9115C9795.03 34.3879 9724.97 33.7134 9600 49.9115Z" fill="#72BDA3"/>
</svg>
